<?xml version="1.0" encoding="utf-8" standalone="no"?>
<!DOCTYPE svg PUBLIC "-//W3C//DTD SVG 1.1//EN"
  "http://www.w3.org/Graphics/SVG/1.1/DTD/svg11.dtd">
<svg xmlns:xlink="http://www.w3.org/1999/xlink" width="489.76pt" height="480.223437pt" viewBox="0 0 489.76 480.223437" xmlns="http://www.w3.org/2000/svg" version="1.1">
 <metadata>
  <rdf:RDF xmlns:dc="http://purl.org/dc/elements/1.1/" xmlns:cc="http://creativecommons.org/ns#" xmlns:rdf="http://www.w3.org/1999/02/22-rdf-syntax-ns#">
   <cc:Work>
    <dc:type rdf:resource="http://purl.org/dc/dcmitype/StillImage"/>
    <dc:date>2023-10-23T13:47:06.481237</dc:date>
    <dc:format>image/svg+xml</dc:format>
    <dc:creator>
     <cc:Agent>
      <dc:title>Matplotlib v3.7.1, https://matplotlib.org/</dc:title>
     </cc:Agent>
    </dc:creator>
   </cc:Work>
  </rdf:RDF>
 </metadata>
 <defs>
  <style type="text/css">*{stroke-linejoin: round; stroke-linecap: butt}</style>
 </defs>
 <g id="figure_1">
  <g id="patch_1">
   <path d="M 0 480.223437 
L 489.76 480.223437 
L 489.76 0 
L 0 0 
z
" style="fill: #ffffff"/>
  </g>
  <g id="axes_1">
   <g id="patch_2">
    <path d="M 36.16 450.72 
L 482.56 450.72 
L 482.56 7.2 
L 36.16 7.2 
z
" style="fill: #ffffff"/>
   </g>
   <g id="matplotlib.axis_1">
    <g id="xtick_1">
     <g id="text_1">
      <!-- 0 -->
      <g style="fill: #262626" transform="translate(52.558253 470.240937) scale(0.14 -0.14)">
       <defs>
        <path id="ArialMT-30" d="M 266 2259 
Q 266 3072 433 3567 
Q 600 4063 929 4331 
Q 1259 4600 1759 4600 
Q 2128 4600 2406 4451 
Q 2684 4303 2865 4023 
Q 3047 3744 3150 3342 
Q 3253 2941 3253 2259 
Q 3253 1453 3087 958 
Q 2922 463 2592 192 
Q 2263 -78 1759 -78 
Q 1097 -78 719 397 
Q 266 969 266 2259 
z
M 844 2259 
Q 844 1131 1108 757 
Q 1372 384 1759 384 
Q 2147 384 2411 759 
Q 2675 1134 2675 2259 
Q 2675 3391 2411 3762 
Q 2147 4134 1753 4134 
Q 1366 4134 1134 3806 
Q 844 3388 844 2259 
z
" transform="scale(0.015625)"/>
       </defs>
       <use xlink:href="#ArialMT-30"/>
      </g>
     </g>
    </g>
    <g id="xtick_2">
     <g id="text_2">
      <!-- 200 -->
      <g style="fill: #262626" transform="translate(126.017822 470.240937) scale(0.14 -0.14)">
       <defs>
        <path id="ArialMT-32" d="M 3222 541 
L 3222 0 
L 194 0 
Q 188 203 259 391 
Q 375 700 629 1000 
Q 884 1300 1366 1694 
Q 2113 2306 2375 2664 
Q 2638 3022 2638 3341 
Q 2638 3675 2398 3904 
Q 2159 4134 1775 4134 
Q 1369 4134 1125 3890 
Q 881 3647 878 3216 
L 300 3275 
Q 359 3922 746 4261 
Q 1134 4600 1788 4600 
Q 2447 4600 2831 4234 
Q 3216 3869 3216 3328 
Q 3216 3053 3103 2787 
Q 2991 2522 2730 2228 
Q 2469 1934 1863 1422 
Q 1356 997 1212 845 
Q 1069 694 975 541 
L 3222 541 
z
" transform="scale(0.015625)"/>
       </defs>
       <use xlink:href="#ArialMT-32"/>
       <use xlink:href="#ArialMT-30" x="55.615234"/>
       <use xlink:href="#ArialMT-30" x="111.230469"/>
      </g>
     </g>
    </g>
    <g id="xtick_3">
     <g id="text_3">
      <!-- 400 -->
      <g style="fill: #262626" transform="translate(207.262703 470.240937) scale(0.14 -0.14)">
       <defs>
        <path id="ArialMT-34" d="M 2069 0 
L 2069 1097 
L 81 1097 
L 81 1613 
L 2172 4581 
L 2631 4581 
L 2631 1613 
L 3250 1613 
L 3250 1097 
L 2631 1097 
L 2631 0 
L 2069 0 
z
M 2069 1613 
L 2069 3678 
L 634 1613 
L 2069 1613 
z
" transform="scale(0.015625)"/>
       </defs>
       <use xlink:href="#ArialMT-34"/>
       <use xlink:href="#ArialMT-30" x="55.615234"/>
       <use xlink:href="#ArialMT-30" x="111.230469"/>
      </g>
     </g>
    </g>
    <g id="xtick_4">
     <g id="text_4">
      <!-- 600 -->
      <g style="fill: #262626" transform="translate(288.507584 470.240937) scale(0.14 -0.14)">
       <defs>
        <path id="ArialMT-36" d="M 3184 3459 
L 2625 3416 
Q 2550 3747 2413 3897 
Q 2184 4138 1850 4138 
Q 1581 4138 1378 3988 
Q 1113 3794 959 3422 
Q 806 3050 800 2363 
Q 1003 2672 1297 2822 
Q 1591 2972 1913 2972 
Q 2475 2972 2870 2558 
Q 3266 2144 3266 1488 
Q 3266 1056 3080 686 
Q 2894 316 2569 119 
Q 2244 -78 1831 -78 
Q 1128 -78 684 439 
Q 241 956 241 2144 
Q 241 3472 731 4075 
Q 1159 4600 1884 4600 
Q 2425 4600 2770 4297 
Q 3116 3994 3184 3459 
z
M 888 1484 
Q 888 1194 1011 928 
Q 1134 663 1356 523 
Q 1578 384 1822 384 
Q 2178 384 2434 671 
Q 2691 959 2691 1453 
Q 2691 1928 2437 2201 
Q 2184 2475 1800 2475 
Q 1419 2475 1153 2201 
Q 888 1928 888 1484 
z
" transform="scale(0.015625)"/>
       </defs>
       <use xlink:href="#ArialMT-36"/>
       <use xlink:href="#ArialMT-30" x="55.615234"/>
       <use xlink:href="#ArialMT-30" x="111.230469"/>
      </g>
     </g>
    </g>
    <g id="xtick_5">
     <g id="text_5">
      <!-- 800 -->
      <g style="fill: #262626" transform="translate(369.752465 470.240937) scale(0.14 -0.14)">
       <defs>
        <path id="ArialMT-38" d="M 1131 2484 
Q 781 2613 612 2850 
Q 444 3088 444 3419 
Q 444 3919 803 4259 
Q 1163 4600 1759 4600 
Q 2359 4600 2725 4251 
Q 3091 3903 3091 3403 
Q 3091 3084 2923 2848 
Q 2756 2613 2416 2484 
Q 2838 2347 3058 2040 
Q 3278 1734 3278 1309 
Q 3278 722 2862 322 
Q 2447 -78 1769 -78 
Q 1091 -78 675 323 
Q 259 725 259 1325 
Q 259 1772 486 2073 
Q 713 2375 1131 2484 
z
M 1019 3438 
Q 1019 3113 1228 2906 
Q 1438 2700 1772 2700 
Q 2097 2700 2305 2904 
Q 2513 3109 2513 3406 
Q 2513 3716 2298 3927 
Q 2084 4138 1766 4138 
Q 1444 4138 1231 3931 
Q 1019 3725 1019 3438 
z
M 838 1322 
Q 838 1081 952 856 
Q 1066 631 1291 507 
Q 1516 384 1775 384 
Q 2178 384 2440 643 
Q 2703 903 2703 1303 
Q 2703 1709 2433 1975 
Q 2163 2241 1756 2241 
Q 1359 2241 1098 1978 
Q 838 1716 838 1322 
z
" transform="scale(0.015625)"/>
       </defs>
       <use xlink:href="#ArialMT-38"/>
       <use xlink:href="#ArialMT-30" x="55.615234"/>
       <use xlink:href="#ArialMT-30" x="111.230469"/>
      </g>
     </g>
    </g>
    <g id="xtick_6">
     <g id="text_6">
      <!-- 1000 -->
      <g style="fill: #262626" transform="translate(447.10469 470.240937) scale(0.14 -0.14)">
       <defs>
        <path id="ArialMT-31" d="M 2384 0 
L 1822 0 
L 1822 3584 
Q 1619 3391 1289 3197 
Q 959 3003 697 2906 
L 697 3450 
Q 1169 3672 1522 3987 
Q 1875 4303 2022 4600 
L 2384 4600 
L 2384 0 
z
" transform="scale(0.015625)"/>
       </defs>
       <use xlink:href="#ArialMT-31"/>
       <use xlink:href="#ArialMT-30" x="55.615234"/>
       <use xlink:href="#ArialMT-30" x="111.230469"/>
       <use xlink:href="#ArialMT-30" x="166.845703"/>
      </g>
     </g>
    </g>
   </g>
   <g id="matplotlib.axis_2">
    <g id="ytick_1">
     <g id="text_7">
      <!-- 0.4 -->
      <g style="fill: #262626" transform="translate(7.2 435.014372) scale(0.14 -0.14)">
       <defs>
        <path id="ArialMT-2e" d="M 581 0 
L 581 641 
L 1222 641 
L 1222 0 
L 581 0 
z
" transform="scale(0.015625)"/>
       </defs>
       <use xlink:href="#ArialMT-30"/>
       <use xlink:href="#ArialMT-2e" x="55.615234"/>
       <use xlink:href="#ArialMT-34" x="83.398438"/>
      </g>
     </g>
    </g>
    <g id="ytick_2">
     <g id="text_8">
      <!-- 0.6 -->
      <g style="fill: #262626" transform="translate(7.2 370.605492) scale(0.14 -0.14)">
       <use xlink:href="#ArialMT-30"/>
       <use xlink:href="#ArialMT-2e" x="55.615234"/>
       <use xlink:href="#ArialMT-36" x="83.398438"/>
      </g>
     </g>
    </g>
    <g id="ytick_3">
     <g id="text_9">
      <!-- 0.8 -->
      <g style="fill: #262626" transform="translate(7.2 306.196613) scale(0.14 -0.14)">
       <use xlink:href="#ArialMT-30"/>
       <use xlink:href="#ArialMT-2e" x="55.615234"/>
       <use xlink:href="#ArialMT-38" x="83.398438"/>
      </g>
     </g>
    </g>
    <g id="ytick_4">
     <g id="text_10">
      <!-- 1.0 -->
      <g style="fill: #262626" transform="translate(7.2 241.787733) scale(0.14 -0.14)">
       <use xlink:href="#ArialMT-31"/>
       <use xlink:href="#ArialMT-2e" x="55.615234"/>
       <use xlink:href="#ArialMT-30" x="83.398438"/>
      </g>
     </g>
    </g>
    <g id="ytick_5">
     <g id="text_11">
      <!-- 1.2 -->
      <g style="fill: #262626" transform="translate(7.2 177.378854) scale(0.14 -0.14)">
       <use xlink:href="#ArialMT-31"/>
       <use xlink:href="#ArialMT-2e" x="55.615234"/>
       <use xlink:href="#ArialMT-32" x="83.398438"/>
      </g>
     </g>
    </g>
    <g id="ytick_6">
     <g id="text_12">
      <!-- 1.4 -->
      <g style="fill: #262626" transform="translate(7.2 112.969974) scale(0.14 -0.14)">
       <use xlink:href="#ArialMT-31"/>
       <use xlink:href="#ArialMT-2e" x="55.615234"/>
       <use xlink:href="#ArialMT-34" x="83.398438"/>
      </g>
     </g>
    </g>
    <g id="ytick_7">
     <g id="text_13">
      <!-- 1.6 -->
      <g style="fill: #262626" transform="translate(7.2 48.561095) scale(0.14 -0.14)">
       <use xlink:href="#ArialMT-31"/>
       <use xlink:href="#ArialMT-2e" x="55.615234"/>
       <use xlink:href="#ArialMT-36" x="83.398438"/>
      </g>
     </g>
    </g>
   </g>
   <g id="line2d_1">
    <path d="M 56.450909 92.128117 
L 56.857133 101.884648 
L 57.263358 100.61526 
L 57.669582 113.503665 
L 58.075807 87.382836 
L 58.482031 113.614115 
L 58.888256 130.410193 
L 59.29448 93.763828 
L 59.700704 135.864281 
L 60.106929 76.56772 
L 60.513153 105.430872 
L 60.919378 69.791879 
L 61.325602 124.60556 
L 61.731826 102.097755 
L 62.138051 109.760842 
L 62.544275 124.162608 
L 62.9505 106.566354 
L 63.356724 119.262076 
L 63.762948 106.532493 
L 64.575397 136.726344 
L 64.981622 134.517075 
L 65.387846 150.752342 
L 65.79407 103.331094 
L 66.200295 131.343471 
L 66.606519 139.688454 
L 67.012744 132.335332 
L 67.418968 130.428352 
L 67.825192 86.156254 
L 68.231417 139.52345 
L 68.637641 170.205592 
L 69.043866 109.611656 
L 69.45009 152.382256 
L 69.856314 158.506262 
L 70.262539 125.848459 
L 71.074988 167.093259 
L 71.481212 168.082357 
L 71.887437 139.530514 
L 72.293661 137.383631 
L 72.699885 138.948281 
L 73.10611 122.476259 
L 73.512334 91.976857 
L 73.918559 133.252755 
L 74.324783 122.555229 
L 74.731007 93.907102 
L 75.137232 150.975008 
L 75.543456 128.099803 
L 75.949681 126.498144 
L 76.355905 130.488664 
L 76.762129 144.37945 
L 77.168354 140.905822 
L 77.574578 161.364602 
L 77.980803 166.820686 
L 78.387027 156.551178 
L 78.793251 155.831045 
L 79.199476 158.292733 
L 79.6057 159.820144 
L 80.011925 135.785849 
L 80.418149 147.250036 
L 80.824373 184.29098 
L 81.636822 130.373031 
L 82.043047 180.567468 
L 82.449271 138.954654 
L 82.855495 145.923446 
L 83.26172 129.705571 
L 83.667944 176.785218 
L 84.074169 136.457071 
L 84.480393 165.878885 
L 84.886618 157.994744 
L 85.292842 128.205186 
L 85.699066 168.313968 
L 86.105291 114.483127 
L 86.511515 164.541661 
L 86.91774 165.322067 
L 87.323964 187.728789 
L 87.730188 188.418056 
L 88.136413 158.5855 
L 88.542637 171.289438 
L 88.948862 199.886889 
L 89.355086 167.366524 
L 89.76131 165.857617 
L 90.167535 179.454983 
L 90.573759 147.941414 
L 90.979984 171.469106 
L 91.386208 159.390322 
L 91.792432 164.133568 
L 92.604881 158.77085 
L 93.011106 168.881881 
L 93.41733 172.450219 
L 93.823554 188.544016 
L 94.229779 177.772549 
L 94.636003 201.813487 
L 95.042228 179.354438 
L 95.448452 197.990619 
L 95.854676 197.920441 
L 96.260901 193.199923 
L 96.667125 193.920439 
L 97.07335 160.194415 
L 97.479574 191.91038 
L 97.885799 202.3108 
L 98.292023 189.481094 
L 98.698247 151.243128 
L 99.104472 222.637592 
L 99.510696 176.646743 
L 99.916921 190.050274 
L 100.323145 185.61139 
L 101.135594 160.700212 
L 101.541818 228.309393 
L 101.948043 202.336483 
L 102.354267 214.366933 
L 102.760491 196.889421 
L 103.166716 192.909843 
L 103.57294 226.679785 
L 103.979165 185.377821 
L 104.385389 197.143567 
L 104.791613 175.021665 
L 105.197838 177.424192 
L 105.604062 206.923863 
L 106.010287 213.387587 
L 106.416511 192.338397 
L 106.822735 201.241734 
L 107.22896 235.124699 
L 107.635184 187.648668 
L 108.041409 231.643893 
L 108.447633 204.15432 
L 108.853857 232.335386 
L 109.260082 209.364435 
L 109.666306 220.33346 
L 110.072531 201.823084 
L 110.478755 207.504599 
L 110.88498 249.357738 
L 111.291204 213.311343 
L 111.697428 231.410669 
L 112.103653 233.817343 
L 112.509877 254.373903 
L 112.916102 224.728809 
L 113.322326 207.796982 
L 113.72855 212.168452 
L 114.134775 198.174357 
L 114.947224 244.661137 
L 115.353448 222.581618 
L 115.759672 240.199602 
L 116.165897 219.935348 
L 116.572121 228.321486 
L 116.978346 221.368972 
L 117.38457 231.232767 
L 117.790794 234.702978 
L 118.197019 206.581226 
L 118.603243 232.748009 
L 119.009468 246.614321 
L 119.415692 254.86348 
L 119.821916 229.46741 
L 120.228141 245.234617 
L 120.634365 232.098822 
L 121.04059 229.328282 
L 121.446814 225.187962 
L 121.853038 205.215669 
L 122.259263 250.142252 
L 122.665487 230.810892 
L 123.071712 252.678225 
L 123.477936 242.423344 
L 123.884161 227.518929 
L 124.290385 241.624971 
L 124.696609 243.698414 
L 125.102834 256.596359 
L 125.509058 231.206892 
L 125.915283 257.654023 
L 126.321507 237.09727 
L 126.727731 245.321188 
L 127.133956 248.108851 
L 127.54018 249.540209 
L 127.946405 245.656915 
L 128.352629 244.879158 
L 128.758853 258.475334 
L 129.165078 265.433376 
L 129.571302 252.803417 
L 129.977527 262.366882 
L 130.383751 269.255015 
L 130.789975 271.804867 
L 131.1962 275.30389 
L 131.602424 270.607922 
L 132.008649 271.677199 
L 132.414873 257.351926 
L 132.821097 250.671928 
L 133.227322 261.758083 
L 133.633546 259.578375 
L 134.039771 250.735349 
L 134.445995 254.733125 
L 135.258444 272.038609 
L 135.664668 288.683561 
L 136.070893 274.38451 
L 136.477117 271.748874 
L 136.883342 278.696091 
L 137.289566 288.758366 
L 137.69579 273.37591 
L 138.102015 280.814258 
L 138.508239 259.777123 
L 138.914464 281.182099 
L 139.320688 273.783427 
L 139.726912 269.480637 
L 140.539361 295.217598 
L 140.945586 283.038576 
L 141.35181 275.952385 
L 141.758034 300.774611 
L 142.164259 276.573278 
L 142.976708 290.5734 
L 143.382932 303.547148 
L 144.195381 281.692445 
L 144.601605 279.041242 
L 145.00783 310.677296 
L 145.414054 289.948439 
L 145.820278 304.894124 
L 146.226503 292.025586 
L 146.632727 299.435314 
L 147.038952 286.450299 
L 147.445176 307.655969 
L 147.8514 285.245733 
L 148.257625 285.098332 
L 148.663849 306.290335 
L 149.070074 282.841094 
L 149.476298 285.536811 
L 149.882523 297.668882 
L 150.288747 273.883396 
L 150.694971 318.751587 
L 151.101196 285.513432 
L 151.50742 302.195988 
L 151.913645 287.939838 
L 152.319869 298.551023 
L 152.726093 288.10058 
L 153.132318 284.116702 
L 153.538542 303.835213 
L 153.944767 291.165961 
L 154.350991 312.873301 
L 154.757215 314.034638 
L 155.16344 299.813155 
L 155.569664 303.677485 
L 155.975889 314.627064 
L 156.382113 318.624629 
L 156.788337 304.45194 
L 157.194562 318.020263 
L 157.600786 295.262323 
L 158.007011 297.609491 
L 158.413235 302.615022 
L 158.819459 287.487365 
L 159.225684 294.623042 
L 159.631908 315.913075 
L 160.038133 314.641384 
L 160.444357 315.038209 
L 160.850581 321.961662 
L 161.256806 319.297425 
L 161.66303 312.725823 
L 162.069255 312.12499 
L 162.475479 321.695883 
L 162.881704 322.969609 
L 163.287928 314.921079 
L 163.694152 313.828212 
L 164.100377 307.143587 
L 164.506601 330.415099 
L 164.912826 292.150739 
L 165.31905 326.908801 
L 165.725274 333.873984 
L 166.131499 318.312858 
L 166.537723 338.65491 
L 166.943948 336.208483 
L 167.350172 316.098944 
L 167.756396 325.882579 
L 168.162621 328.200378 
L 168.568845 323.425959 
L 168.97507 315.376335 
L 169.381294 334.001076 
L 169.787518 341.517934 
L 170.193743 354.711353 
L 170.599967 321.071017 
L 171.006192 336.478274 
L 171.412416 325.721415 
L 171.81864 327.820119 
L 172.224865 333.011461 
L 172.631089 320.194097 
L 173.037314 317.887278 
L 173.443538 332.780464 
L 173.849762 342.294405 
L 174.255987 330.826647 
L 174.662211 338.411475 
L 175.068436 332.464816 
L 175.47466 336.303116 
L 175.880885 329.954468 
L 176.287109 347.29005 
L 176.693333 338.614005 
L 177.099558 349.178929 
L 177.505782 337.981787 
L 177.912007 335.144946 
L 178.318231 334.346497 
L 178.724455 332.177922 
L 179.13068 318.570882 
L 179.536904 343.89806 
L 179.943129 338.611356 
L 180.349353 349.278457 
L 180.755577 336.632009 
L 181.161802 344.213229 
L 181.568026 342.204916 
L 182.380475 313.98235 
L 182.786699 331.619184 
L 183.192924 326.245525 
L 184.005373 343.927352 
L 184.411597 338.877096 
L 184.817821 344.624239 
L 185.224046 341.460425 
L 185.63027 340.605714 
L 186.036495 354.180026 
L 186.442719 326.646746 
L 186.848943 348.125009 
L 187.255168 339.598016 
L 187.661392 335.27605 
L 188.067617 360.015928 
L 188.473841 353.974617 
L 188.880066 343.265574 
L 189.28629 348.350573 
L 189.692514 340.926852 
L 190.098739 349.733598 
L 190.504963 338.684337 
L 190.911188 351.803816 
L 191.317412 351.68943 
L 191.723636 359.246502 
L 192.129861 360.252914 
L 192.536085 343.638367 
L 192.94231 339.902281 
L 193.348534 344.130132 
L 193.754758 342.626772 
L 194.160983 342.387483 
L 194.567207 342.680961 
L 194.973432 334.139724 
L 195.379656 337.361087 
L 195.78588 344.73778 
L 196.192105 337.857555 
L 196.598329 350.24596 
L 197.004554 340.952612 
L 197.410778 346.294061 
L 197.817002 348.98354 
L 198.223227 345.845044 
L 198.629451 355.648642 
L 199.035676 345.061605 
L 199.4419 358.587872 
L 199.848124 357.146397 
L 200.254349 358.542168 
L 200.660573 361.961338 
L 201.066798 355.718782 
L 201.473022 360.779442 
L 201.879247 359.536659 
L 202.285471 359.510764 
L 202.691695 368.347206 
L 203.09792 366.195293 
L 203.504144 351.453654 
L 203.910369 366.579468 
L 204.722817 341.194972 
L 205.129042 370.49622 
L 205.535266 354.022336 
L 205.941491 372.976201 
L 206.347715 364.248309 
L 206.753939 369.459422 
L 207.566388 354.901349 
L 207.972613 377.919635 
L 208.378837 357.721164 
L 208.785061 363.70535 
L 209.191286 360.304434 
L 209.59751 365.77885 
L 210.003735 365.861409 
L 210.409959 362.572249 
L 210.816183 368.960151 
L 211.222408 368.644926 
L 211.628632 357.970665 
L 212.034857 358.009343 
L 212.847305 375.555133 
L 213.25353 369.674218 
L 213.659754 372.960269 
L 214.065979 364.074956 
L 214.472203 382.280241 
L 214.878428 367.98879 
L 215.284652 376.558148 
L 215.690876 356.134534 
L 216.097101 374.668731 
L 216.503325 368.311733 
L 216.90955 377.981194 
L 217.315774 377.95148 
L 217.721998 371.473897 
L 218.128223 375.792733 
L 218.534447 370.674795 
L 218.940672 385.698182 
L 219.346896 388.257805 
L 219.75312 375.017318 
L 220.159345 382.498856 
L 220.565569 380.964458 
L 220.971794 383.523542 
L 221.378018 378.966683 
L 221.784242 389.400964 
L 222.190467 384.050397 
L 222.596691 387.597024 
L 223.002916 386.114856 
L 223.40914 379.861301 
L 223.815364 394.555835 
L 224.221589 373.729157 
L 224.627813 393.099234 
L 225.034038 379.42288 
L 225.440262 390.065161 
L 225.846486 388.529687 
L 226.252711 399.438285 
L 226.658935 386.622169 
L 227.06516 392.860579 
L 227.471384 384.772468 
L 227.877609 393.360771 
L 228.283833 387.350901 
L 228.690057 374.960769 
L 229.096282 396.782897 
L 229.502506 378.742251 
L 229.908731 397.89498 
L 230.314955 383.499894 
L 230.721179 389.443731 
L 231.127404 383.890519 
L 231.533628 383.07107 
L 231.939853 386.411961 
L 232.346077 392.783337 
L 232.752301 391.571074 
L 233.158526 386.906069 
L 233.56475 386.153323 
L 233.970975 386.378657 
L 234.377199 389.70116 
L 234.783423 396.795029 
L 235.189648 377.925355 
L 235.595872 389.601709 
L 236.002097 393.204521 
L 236.408321 387.888237 
L 236.814545 397.620045 
L 237.22077 389.650503 
L 237.626994 395.508096 
L 238.033219 391.213503 
L 238.439443 396.082075 
L 239.251892 388.855432 
L 239.658116 394.56643 
L 240.064341 390.595413 
L 240.470565 394.19262 
L 240.87679 394.348563 
L 241.689238 403.610162 
L 242.501687 400.939159 
L 242.907912 400.267639 
L 243.314136 390.873631 
L 243.72036 399.56603 
L 244.126585 388.85144 
L 244.532809 386.985998 
L 244.939034 386.187971 
L 245.345258 392.400006 
L 245.751482 392.642788 
L 246.157707 396.923695 
L 246.563931 403.205851 
L 246.970156 396.818812 
L 247.37638 394.211393 
L 247.782604 402.025548 
L 248.188829 399.6116 
L 248.595053 393.727172 
L 249.001278 392.388335 
L 249.407502 395.466462 
L 249.813726 387.88004 
L 250.626175 404.226697 
L 251.0324 400.847194 
L 251.438624 396.292322 
L 251.844848 402.691953 
L 252.657297 406.975701 
L 253.063522 403.325591 
L 253.469746 404.622621 
L 253.875971 401.406191 
L 254.282195 408.814259 
L 254.688419 401.721245 
L 255.094644 412.631819 
L 255.500868 404.949114 
L 255.907093 406.862295 
L 256.313317 401.76597 
L 256.719541 411.535046 
L 257.125766 399.54098 
L 257.53199 394.953984 
L 257.938215 405.033612 
L 258.344439 403.024906 
L 258.750663 408.244666 
L 259.563112 403.954642 
L 259.969337 401.151316 
L 260.375561 402.245412 
L 260.781785 413.501963 
L 261.18801 403.252054 
L 261.594234 408.171954 
L 262.000459 404.383264 
L 262.406683 402.011661 
L 262.812907 407.605049 
L 263.219132 406.832887 
L 263.625356 411.380379 
L 264.031581 405.562981 
L 264.437805 401.408572 
L 264.844029 410.296879 
L 265.250254 406.49885 
L 265.656478 412.874333 
L 266.062703 406.023996 
L 266.468927 405.679036 
L 266.875152 404.809833 
L 267.281376 409.540467 
L 267.6876 403.091101 
L 268.093825 410.821017 
L 268.500049 406.045504 
L 268.906274 405.080564 
L 269.312498 402.800196 
L 269.718722 403.106937 
L 270.124947 412.532887 
L 270.531171 396.801095 
L 270.937396 403.793017 
L 271.34362 400.63022 
L 271.749844 401.135393 
L 272.156069 407.082196 
L 272.562293 406.641731 
L 272.968518 402.931127 
L 273.374742 411.385351 
L 273.780966 408.193991 
L 274.187191 400.131141 
L 274.593415 408.828435 
L 274.99964 398.229746 
L 275.405864 407.587226 
L 276.218313 404.99263 
L 276.624537 411.762664 
L 277.030762 408.401464 
L 277.436986 408.874744 
L 277.84321 408.627038 
L 278.249435 411.630437 
L 278.655659 407.594568 
L 279.061884 408.076458 
L 279.468108 410.606471 
L 279.874333 407.688155 
L 280.280557 410.032549 
L 280.686781 409.304614 
L 281.093006 413.235532 
L 281.49923 403.962147 
L 281.905455 404.831706 
L 282.311679 401.917306 
L 282.717903 408.524343 
L 283.124128 406.641356 
L 283.530352 402.763177 
L 283.936577 407.167501 
L 284.342801 407.619013 
L 285.15525 402.971821 
L 285.561474 410.566266 
L 285.967699 404.158266 
L 286.373923 401.617091 
L 286.780147 413.031063 
L 287.186372 415.74849 
L 287.592596 410.208273 
L 287.998821 412.03876 
L 288.405045 405.891068 
L 288.811269 406.657883 
L 289.217494 409.267721 
L 289.623718 413.772906 
L 290.029943 407.527298 
L 290.436167 408.333349 
L 290.842391 407.563184 
L 291.65484 409.277011 
L 292.061065 410.684529 
L 292.873514 399.309196 
L 293.279738 411.776005 
L 293.685962 409.341891 
L 294.092187 415.640689 
L 295.31086 402.158303 
L 295.717084 410.558626 
L 296.123309 416.562805 
L 296.529533 402.870623 
L 296.935758 412.875255 
L 297.341982 404.088529 
L 297.748206 401.535184 
L 298.154431 409.373967 
L 298.560655 410.357632 
L 298.96688 403.446445 
L 299.779328 420.021297 
L 300.185553 407.870396 
L 300.591777 407.882335 
L 301.404226 406.341103 
L 301.81045 416.723498 
L 302.216675 407.184297 
L 302.622899 411.422801 
L 303.029124 407.983763 
L 303.435348 411.129707 
L 303.841572 412.118219 
L 304.654021 412.338188 
L 305.060246 410.19116 
L 305.46647 416.414799 
L 305.872695 406.441926 
L 306.278919 415.013645 
L 306.685143 411.255177 
L 307.091368 419.06105 
L 307.497592 407.19232 
L 307.903817 413.325827 
L 308.310041 407.943664 
L 308.716265 416.207278 
L 309.12249 410.699923 
L 309.528714 409.080806 
L 309.934939 412.568983 
L 310.341163 408.58023 
L 310.747387 410.836537 
L 311.153612 405.939248 
L 311.559836 412.733008 
L 311.966061 407.451803 
L 312.778509 417.918447 
L 313.184734 412.475262 
L 313.590958 412.453667 
L 313.997183 413.766264 
L 314.403407 406.285686 
L 314.809631 413.735331 
L 315.215856 406.384619 
L 315.62208 416.222673 
L 316.028305 403.288304 
L 316.434529 413.381282 
L 316.840753 409.5187 
L 317.246978 416.399433 
L 317.653202 414.945242 
L 318.059427 409.949184 
L 318.465651 417.286248 
L 318.871876 409.178395 
L 319.2781 421.42296 
L 319.684324 418.163946 
L 320.090549 416.416114 
L 320.496773 408.915553 
L 320.902998 414.168675 
L 321.309222 403.112331 
L 321.715446 411.893816 
L 322.121671 406.322061 
L 322.527895 405.680207 
L 322.93412 420.507073 
L 323.340344 412.430633 
L 323.746568 413.592335 
L 324.152793 407.850941 
L 324.559017 404.857053 
L 324.965242 408.583003 
L 325.371466 413.902062 
L 325.77769 412.731913 
L 326.183915 414.600935 
L 326.590139 412.687236 
L 326.996364 411.325384 
L 327.402588 406.307837 
L 327.808812 420.651758 
L 328.215037 407.618821 
L 328.621261 413.940107 
L 329.027486 405.375116 
L 329.43371 413.32648 
L 329.839934 410.399324 
L 330.246159 412.636349 
L 330.652383 409.009274 
L 331.058608 410.057743 
L 331.464832 418.41981 
L 331.871057 407.865827 
L 332.277281 422.037115 
L 332.683505 419.077817 
L 333.08973 421.919956 
L 333.495954 410.570048 
L 333.902179 412.759027 
L 334.308403 402.408476 
L 334.714627 413.955089 
L 335.120852 413.343794 
L 335.527076 405.564603 
L 335.933301 415.620285 
L 336.339525 409.299911 
L 336.745749 409.854004 
L 337.151974 411.891705 
L 337.558198 409.721633 
L 337.964423 409.61124 
L 338.370647 414.197507 
L 338.776871 415.672745 
L 339.183096 418.478375 
L 339.58932 410.983419 
L 339.995545 412.414202 
L 340.401769 410.461181 
L 340.807993 414.143597 
L 341.214218 411.711806 
L 341.620442 412.125475 
L 342.026667 408.238985 
L 342.432891 412.237355 
L 342.839115 410.634822 
L 343.651564 414.857519 
L 344.057789 413.096289 
L 344.464013 416.220379 
L 344.870238 412.407368 
L 345.276462 423.826159 
L 345.682686 414.273395 
L 346.088911 421.599278 
L 346.495135 412.896792 
L 346.90136 411.167752 
L 347.307584 407.967889 
L 347.713808 415.907101 
L 348.120033 411.081124 
L 348.526257 409.229877 
L 348.932482 415.193754 
L 349.338706 410.04089 
L 349.74493 410.362892 
L 350.151155 412.658942 
L 350.557379 413.147349 
L 350.963604 409.208791 
L 351.369828 409.329846 
L 351.776052 417.250334 
L 352.182277 413.866531 
L 352.994726 411.031389 
L 353.40095 408.893872 
L 353.807174 413.418387 
L 354.213399 407.55064 
L 354.619623 413.362423 
L 355.025848 410.240483 
L 355.432072 411.786101 
L 355.838296 412.22675 
L 356.650745 416.822335 
L 357.05697 413.52375 
L 357.463194 417.709602 
L 357.869419 411.521628 
L 358.275643 420.508023 
L 358.681867 412.026197 
L 359.088092 421.542883 
L 359.494316 413.291832 
L 359.900541 410.981116 
L 360.306765 412.595857 
L 360.712989 412.305633 
L 361.119214 416.280691 
L 361.525438 407.713397 
L 361.931663 419.660155 
L 362.337887 411.161898 
L 362.744111 412.893164 
L 363.150336 409.277357 
L 363.55656 411.791284 
L 363.962785 408.637576 
L 364.369009 409.286225 
L 364.775233 418.443094 
L 365.181458 418.90313 
L 365.587682 413.759335 
L 365.993907 414.723286 
L 366.400131 409.733553 
L 366.806355 414.879575 
L 367.21258 410.117844 
L 367.618804 414.68622 
L 368.025029 410.356538 
L 368.431253 419.414983 
L 368.837477 415.193227 
L 369.243702 418.382859 
L 369.649926 412.18785 
L 370.056151 417.15428 
L 370.462375 415.067536 
L 370.8686 410.987969 
L 371.274824 419.077308 
L 371.681048 413.460166 
L 372.087273 420.40742 
L 372.493497 412.723506 
L 372.899722 416.633376 
L 373.305946 412.675969 
L 373.71217 413.071969 
L 374.118395 417.244652 
L 374.524619 409.229311 
L 374.930844 416.389941 
L 375.337068 409.047809 
L 375.743292 413.293099 
L 376.149517 408.918644 
L 376.555741 414.135563 
L 376.961966 409.42757 
L 377.774414 420.490853 
L 378.180639 416.372435 
L 378.586863 415.606358 
L 378.993088 413.713093 
L 379.399312 411.011205 
L 379.805536 418.244211 
L 380.211761 412.934971 
L 380.617985 418.131237 
L 381.02421 412.888154 
L 381.430434 418.758118 
L 381.836658 415.380218 
L 382.242883 421.084584 
L 382.649107 413.674913 
L 383.055332 420.408351 
L 383.867781 413.960934 
L 384.274005 420.756785 
L 384.680229 413.410651 
L 385.086454 421.313143 
L 385.492678 413.266811 
L 385.898903 416.750708 
L 386.305127 411.251098 
L 386.711351 414.324541 
L 387.117576 412.957881 
L 387.5238 410.384947 
L 387.930025 419.63833 
L 388.336249 414.75756 
L 388.742473 419.026987 
L 389.148698 411.005302 
L 389.554922 412.700078 
L 389.961147 404.608339 
L 390.773595 419.469085 
L 391.17982 416.72943 
L 391.586044 416.137042 
L 391.992269 413.114419 
L 392.804717 413.653885 
L 393.210942 413.589475 
L 393.617166 417.46225 
L 394.023391 412.69359 
L 394.429615 417.925645 
L 394.835839 415.755919 
L 395.242064 417.001466 
L 395.648288 414.731089 
L 396.054513 419.64073 
L 396.460737 418.802719 
L 396.866962 414.738786 
L 397.273186 423.622515 
L 397.67941 412.62441 
L 398.085635 422.96449 
L 398.491859 415.335339 
L 398.898084 418.583825 
L 399.304308 412.125725 
L 400.116757 417.681173 
L 400.522981 410.022069 
L 400.929206 422.642113 
L 401.33543 413.754574 
L 401.741654 420.192231 
L 402.147879 411.434318 
L 402.554103 414.43932 
L 402.960328 408.900773 
L 403.366552 414.769451 
L 403.772776 417.936375 
L 404.179001 417.196251 
L 404.585225 422.216438 
L 404.99145 414.108219 
L 405.397674 416.446874 
L 405.803898 416.60752 
L 406.210123 418.661249 
L 406.616347 420.120786 
L 407.022572 418.713595 
L 407.428796 419.427527 
L 407.83502 419.359614 
L 408.241245 418.429513 
L 408.647469 420.297614 
L 409.053694 419.254519 
L 409.459918 423.737025 
L 409.866143 417.931941 
L 410.272367 425.458569 
L 410.678591 416.759144 
L 411.084816 424.339836 
L 411.49104 418.244077 
L 411.897265 421.186137 
L 412.303489 414.82339 
L 412.709713 418.382494 
L 413.115938 423.208453 
L 413.522162 415.189196 
L 413.928387 424.81494 
L 414.334611 416.655816 
L 414.740835 421.360037 
L 415.14706 414.603411 
L 415.553284 417.761928 
L 415.959509 418.858692 
L 416.365733 418.377907 
L 416.771957 423.360528 
L 417.178182 420.360881 
L 417.584406 424.291051 
L 417.990631 416.904415 
L 418.396855 415.519173 
L 418.803079 415.053264 
L 419.209304 416.806019 
L 419.615528 416.976071 
L 420.021753 423.040743 
L 420.427977 422.941023 
L 420.834201 424.956064 
L 421.240426 423.921425 
L 421.64665 422.37716 
L 422.052875 419.015422 
L 422.459099 425.110135 
L 422.865324 416.440809 
L 423.271548 422.668219 
L 423.677772 417.778993 
L 424.083997 422.346659 
L 424.490221 415.734497 
L 424.896446 420.181117 
L 425.30267 414.731195 
L 425.708894 420.297191 
L 426.115119 423.368811 
L 426.521343 419.207923 
L 426.927568 428.81641 
L 427.333792 421.000624 
L 427.740016 420.763177 
L 428.146241 418.797344 
L 428.552465 420.045147 
L 428.95869 418.264462 
L 429.364914 420.069669 
L 429.771138 426.148296 
L 430.177363 419.549936 
L 430.583587 425.850384 
L 430.989812 418.437201 
L 431.396036 419.694736 
L 431.80226 417.114431 
L 432.208485 420.971783 
L 432.614709 422.242697 
L 433.020934 424.045581 
L 433.427158 424.572493 
L 433.833382 426.318261 
L 434.239607 421.636796 
L 434.645831 423.607697 
L 435.052056 422.769609 
L 435.45828 424.786156 
L 435.864505 422.005116 
L 436.270729 423.190918 
L 436.676953 422.122899 
L 437.083178 425.450469 
L 437.489402 421.040646 
L 437.895627 426.479358 
L 438.301851 424.823107 
L 438.708075 419.106965 
L 439.1143 422.517939 
L 439.520524 422.69897 
L 439.926749 428.567735 
L 440.332973 419.204304 
L 440.739197 419.683305 
L 441.551646 421.978185 
L 441.957871 415.391543 
L 442.364095 422.122323 
L 442.770319 418.770144 
L 443.176544 425.296234 
L 443.988993 418.114451 
L 444.395217 418.536191 
L 444.801441 419.474287 
L 445.207666 426.967112 
L 445.61389 419.674648 
L 446.426339 426.595029 
L 446.832563 422.869002 
L 447.238788 423.635914 
L 447.645012 420.76812 
L 448.051237 425.053288 
L 448.457461 414.017953 
L 448.863686 423.629791 
L 449.26991 419.997418 
L 449.676134 427.305199 
L 450.082359 421.386277 
L 450.488583 424.760684 
L 450.894808 418.402409 
L 451.301032 423.648141 
L 451.707256 421.908448 
L 452.113481 420.815274 
L 452.519705 422.971707 
L 452.92593 422.958491 
L 453.332154 423.708751 
L 453.738378 425.082571 
L 454.144603 420.752265 
L 454.550827 423.573337 
L 454.957052 418.565771 
L 455.363276 424.741498 
L 455.7695 420.812106 
L 456.175725 427.180151 
L 456.581949 419.246995 
L 456.988174 422.371766 
L 457.394398 420.058468 
L 457.800622 426.587351 
L 458.206847 422.09114 
L 458.613071 424.541752 
L 459.019296 425.379254 
L 459.42552 422.319133 
L 459.831744 424.263985 
L 460.237969 423.888534 
L 460.644193 422.727993 
L 461.050418 417.483077 
L 461.862867 414.696202 
L 462.269091 419.51429 
L 462.269091 419.51429 
" clip-path="url(#pb0b101dd36)" style="fill: none; stroke: #d62728; stroke-width: 1.5; stroke-linecap: round"/>
   </g>
   <g id="line2d_2">
    <path d="M 56.450909 428.979072 
L 56.857133 428.852833 
L 57.263358 423.815918 
L 57.669582 425.333051 
L 58.075807 429.861904 
L 58.482031 425.355221 
L 58.888256 425.453002 
L 59.29448 429.149545 
L 60.106929 417.365064 
L 60.513153 420.348366 
L 60.919378 419.813833 
L 61.325602 425.35668 
L 61.731826 423.718838 
L 62.138051 428.534699 
L 62.544275 425.576448 
L 62.9505 428.579847 
L 63.356724 430.449176 
L 63.762948 426.876107 
L 64.169173 424.763333 
L 64.575397 428.82454 
L 64.981622 427.661062 
L 65.387846 421.609039 
L 65.79407 427.558242 
L 66.200295 422.352878 
L 66.606519 428.938147 
L 67.012744 424.436935 
L 67.418968 424.243389 
L 67.825192 430.56 
L 68.231417 423.190284 
L 68.637641 422.569843 
L 69.043866 425.554853 
L 69.45009 425.519284 
L 69.856314 428.105242 
L 70.262539 423.871623 
L 70.668763 422.130577 
L 71.074988 423.772853 
L 71.481212 426.097064 
L 71.887437 423.192924 
L 72.293661 427.759121 
L 72.699885 419.78623 
L 73.10611 430.128777 
L 73.512334 424.241642 
L 73.918559 424.420619 
L 74.324783 419.34063 
L 74.731007 423.91273 
L 75.137232 425.2126 
L 75.543456 423.780935 
L 75.949681 427.047598 
L 76.355905 423.84879 
L 76.762129 425.037145 
L 77.168354 424.252161 
L 77.574578 428.235809 
L 78.387027 418.239777 
L 78.793251 425.525062 
L 79.199476 423.993561 
L 79.6057 424.822781 
L 80.011925 421.670253 
L 80.418149 423.602101 
L 80.824373 420.942865 
L 81.230598 428.401493 
L 81.636822 418.411287 
L 82.043047 426.328521 
L 82.449271 422.874319 
L 82.855495 430.345607 
L 83.26172 423.167548 
L 83.667944 425.327638 
L 84.074169 420.223942 
L 84.480393 422.195956 
L 84.886618 411.381099 
L 85.292842 423.680581 
L 85.699066 419.357483 
L 86.105291 426.357986 
L 86.511515 423.681829 
L 86.91774 420.031317 
L 87.323964 420.833077 
L 87.730188 428.345529 
L 88.136413 427.257864 
L 88.542637 425.6222 
L 88.948862 421.836283 
L 89.355086 424.639293 
L 89.76131 421.201944 
L 90.573759 424.446783 
L 90.979984 422.975076 
L 91.386208 412.683493 
L 91.792432 423.959528 
L 92.198657 423.470431 
L 92.604881 424.332273 
L 93.011106 423.168814 
L 93.41733 423.942665 
L 93.823554 421.965535 
L 94.229779 427.632787 
L 94.636003 419.646152 
L 95.042228 423.54154 
L 95.448452 421.666769 
L 95.854676 429.418338 
L 96.260901 425.30898 
L 96.667125 428.248996 
L 97.07335 426.89369 
L 97.479574 424.833934 
L 97.885799 416.106522 
L 98.292023 427.066102 
L 98.698247 421.554352 
L 99.104472 425.354502 
L 99.510696 426.03894 
L 99.916921 421.844701 
L 100.323145 420.369078 
L 100.729369 425.813846 
L 101.135594 425.971536 
L 101.541818 421.302221 
L 101.948043 421.411155 
L 102.354267 423.114338 
L 102.760491 422.811666 
L 103.166716 424.72953 
L 103.57294 419.063737 
L 103.979165 422.09185 
L 104.385389 416.502167 
L 104.791613 421.074449 
L 105.197838 419.505882 
L 105.604062 423.67488 
L 106.010287 419.042296 
L 106.416511 424.379177 
L 106.822735 424.139907 
L 107.22896 422.898007 
L 107.635184 423.239069 
L 108.041409 419.596504 
L 108.447633 417.644856 
L 108.853857 424.784573 
L 109.260082 423.506412 
L 109.666306 425.93089 
L 110.072531 422.468616 
L 110.478755 422.700093 
L 110.88498 414.701308 
L 111.291204 425.938434 
L 111.697428 419.980353 
L 112.103653 423.311992 
L 112.509877 423.22761 
L 112.916102 421.067308 
L 113.72855 426.021089 
L 114.134775 428.453196 
L 114.540999 421.062078 
L 114.947224 421.187682 
L 115.353448 422.063124 
L 115.759672 420.850756 
L 116.165897 427.847257 
L 116.572121 419.684725 
L 116.978346 425.383842 
L 117.38457 417.632705 
L 117.790794 424.003898 
L 118.197019 421.073173 
L 118.603243 421.899158 
L 119.009468 417.994864 
L 119.415692 420.320302 
L 119.821916 421.917883 
L 120.228141 420.68128 
L 120.634365 420.214075 
L 121.04059 415.229237 
L 121.446814 418.492272 
L 121.853038 426.68496 
L 122.259263 423.242736 
L 122.665487 428.013402 
L 123.071712 424.361517 
L 123.477936 423.396279 
L 123.884161 414.853028 
L 124.290385 424.519015 
L 124.696609 419.588365 
L 125.102834 418.909435 
L 125.509058 421.375298 
L 125.915283 420.02073 
L 126.321507 419.262543 
L 126.727731 424.169304 
L 127.133956 424.531127 
L 127.54018 418.538495 
L 127.946405 419.757677 
L 128.352629 420.106322 
L 128.758853 421.406999 
L 129.165078 424.240222 
L 129.571302 418.971465 
L 129.977527 421.410627 
L 130.383751 413.643894 
L 130.789975 422.72188 
L 131.1962 418.306634 
L 132.008649 417.537381 
L 132.414873 418.502523 
L 132.821097 421.519378 
L 133.227322 419.586426 
L 133.633546 419.933987 
L 134.039771 415.730408 
L 134.445995 418.40598 
L 134.852219 424.707916 
L 135.258444 421.508417 
L 135.664668 424.48548 
L 136.070893 421.125816 
L 136.477117 419.819573 
L 136.883342 413.909308 
L 137.289566 420.92248 
L 138.102015 414.182784 
L 138.508239 416.605965 
L 138.914464 417.97682 
L 139.320688 417.978317 
L 139.726912 422.676156 
L 140.133137 423.823548 
L 140.539361 417.830551 
L 140.945586 419.954151 
L 141.35181 418.291528 
L 141.758034 417.317162 
L 142.164259 420.605641 
L 142.570483 416.99279 
L 142.976708 416.587979 
L 143.382932 409.858553 
L 143.789156 418.114681 
L 144.601605 415.140305 
L 145.00783 411.259775 
L 145.414054 417.311049 
L 146.226503 420.124971 
L 146.632727 417.99496 
L 147.038952 412.036495 
L 147.445176 418.324083 
L 147.8514 420.097368 
L 148.257625 419.20083 
L 148.663849 421.567462 
L 149.476298 420.065177 
L 149.882523 415.392685 
L 150.288747 419.51454 
L 151.101196 412.466442 
L 151.50742 417.729507 
L 151.913645 414.22318 
L 152.319869 414.393481 
L 152.726093 420.373531 
L 153.132318 419.202078 
L 153.538542 414.819321 
L 153.944767 419.573162 
L 154.350991 418.779991 
L 154.757215 415.818812 
L 155.16344 423.704153 
L 155.569664 417.396026 
L 155.975889 419.772391 
L 156.382113 410.159363 
L 156.788337 421.020904 
L 157.194562 415.979833 
L 157.600786 415.544319 
L 158.007011 412.067687 
L 158.413235 412.988411 
L 158.819459 418.476955 
L 159.225684 415.301133 
L 159.631908 421.354874 
L 160.038133 412.395477 
L 160.444357 420.436626 
L 160.850581 422.295215 
L 161.256806 419.574151 
L 161.66303 422.116084 
L 162.069255 419.627658 
L 162.881704 411.6318 
L 163.287928 422.953001 
L 163.694152 412.415469 
L 164.100377 412.494669 
L 164.506601 415.481704 
L 164.912826 416.921067 
L 165.31905 411.416581 
L 165.725274 417.385699 
L 166.131499 417.751313 
L 166.537723 411.533251 
L 166.943948 412.618815 
L 167.350172 418.250881 
L 167.756396 414.969255 
L 168.162621 423.589547 
L 168.568845 414.266831 
L 168.97507 419.982944 
L 169.381294 408.972439 
L 169.787518 418.459717 
L 170.193743 414.737395 
L 171.006192 416.932641 
L 171.412416 415.78285 
L 171.81864 418.977972 
L 172.224865 416.516976 
L 172.631089 415.473824 
L 173.037314 413.857538 
L 173.443538 413.49536 
L 173.849762 423.665302 
L 174.255987 421.586658 
L 174.662211 422.593319 
L 175.068436 422.119328 
L 175.47466 419.206589 
L 175.880885 411.842353 
L 176.287109 420.745921 
L 176.693333 413.017262 
L 177.099558 412.246434 
L 177.505782 414.546382 
L 177.912007 412.418252 
L 178.318231 412.621012 
L 178.724455 416.242098 
L 179.13068 416.063064 
L 179.536904 412.591356 
L 179.943129 417.796777 
L 180.349353 415.4496 
L 180.755577 417.807248 
L 181.161802 421.16269 
L 181.568026 411.586 
L 181.974251 413.739602 
L 182.380475 403.583394 
L 182.786699 414.182362 
L 183.192924 408.468331 
L 183.599148 417.851378 
L 184.005373 408.496001 
L 184.411597 412.635793 
L 184.817821 413.868374 
L 186.036495 407.914075 
L 186.442719 412.218304 
L 186.848943 412.371972 
L 187.255168 411.658999 
L 187.661392 417.14617 
L 188.067617 411.807667 
L 188.473841 414.206874 
L 188.880066 407.413527 
L 189.28629 417.070934 
L 189.692514 407.346478 
L 190.098739 405.880184 
L 190.504963 410.678367 
L 190.911188 411.606337 
L 191.317412 407.876596 
L 191.723636 411.988852 
L 192.536085 405.543536 
L 192.94231 411.554289 
L 193.348534 412.448293 
L 193.754758 412.030602 
L 194.160983 416.579495 
L 194.567207 410.417464 
L 195.379656 402.460918 
L 195.78588 410.672013 
L 196.192105 407.15439 
L 196.598329 410.581978 
L 197.004554 401.626592 
L 197.410778 409.985722 
L 197.817002 414.550797 
L 198.223227 411.947265 
L 198.629451 412.31525 
L 199.035676 401.952145 
L 199.4419 414.60487 
L 199.848124 412.457583 
L 200.254349 416.258395 
L 200.660573 413.382971 
L 201.066798 413.626368 
L 201.473022 412.068206 
L 201.879247 411.648077 
L 202.285471 411.854216 
L 202.691695 409.251404 
L 203.09792 408.560113 
L 203.504144 404.984606 
L 203.910369 409.804307 
L 204.316593 408.688491 
L 204.722817 408.003247 
L 205.129042 411.612815 
L 205.535266 407.927483 
L 205.941491 409.936745 
L 206.347715 408.949347 
L 206.753939 406.863658 
L 207.160164 414.954091 
L 207.566388 401.464161 
L 207.972613 407.256279 
L 208.378837 400.307181 
L 209.191286 415.923053 
L 209.59751 409.614676 
L 210.003735 409.894161 
L 210.409959 405.639897 
L 210.816183 418.308602 
L 211.222408 411.366251 
L 211.628632 411.349647 
L 212.034857 403.384319 
L 212.441081 409.123871 
L 212.847305 411.606039 
L 213.25353 415.336251 
L 213.659754 409.715682 
L 214.065979 409.136348 
L 214.472203 410.47552 
L 214.878428 407.494081 
L 215.284652 419.236668 
L 216.097101 403.12118 
L 216.503325 412.322563 
L 216.90955 415.081625 
L 217.315774 409.983803 
L 217.721998 419.17245 
L 218.128223 405.366891 
L 218.534447 399.926019 
L 218.940672 402.19656 
L 219.346896 410.444126 
L 219.75312 407.020176 
L 220.159345 416.376514 
L 220.565569 410.083446 
L 220.971794 409.668404 
L 221.378018 401.676865 
L 221.784242 411.109514 
L 222.190467 410.384294 
L 222.596691 405.783804 
L 223.002916 403.732667 
L 223.40914 399.920952 
L 223.815364 414.047783 
L 224.221589 412.734054 
L 225.034038 406.013304 
L 225.440262 414.248528 
L 225.846486 406.683951 
L 226.252711 414.488047 
L 226.658935 408.788317 
L 227.06516 411.52755 
L 227.471384 412.682111 
L 227.877609 405.748427 
L 228.283833 417.74613 
L 228.690057 413.108478 
L 229.096282 410.379073 
L 229.502506 411.312562 
L 229.908731 404.840872 
L 230.314955 410.544019 
L 230.721179 406.549411 
L 231.127404 413.009651 
L 231.533628 401.288524 
L 231.939853 411.1504 
L 232.346077 410.668251 
L 232.752301 408.545707 
L 233.158526 411.943734 
L 233.56475 407.513746 
L 233.970975 410.805104 
L 234.377199 404.596073 
L 234.783423 409.37269 
L 235.189648 410.755494 
L 235.595872 411.615656 
L 236.002097 404.032325 
L 236.814545 413.22627 
L 237.22077 408.144428 
L 237.626994 412.8081 
L 238.033219 404.836313 
L 238.439443 412.168281 
L 238.845667 404.200141 
L 239.251892 411.050641 
L 239.658116 411.270275 
L 240.064341 410.23267 
L 240.470565 412.575558 
L 240.87679 401.458038 
L 241.283014 413.453342 
L 241.689238 401.553564 
L 242.095463 406.960421 
L 242.907912 409.577149 
L 243.314136 399.981072 
L 243.72036 403.949843 
L 244.126585 402.974105 
L 244.532809 397.034184 
L 244.939034 397.901736 
L 245.345258 399.541134 
L 245.751482 394.552648 
L 246.157707 404.067031 
L 246.563931 403.646461 
L 246.970156 408.302358 
L 247.37638 383.22993 
L 247.782604 400.231782 
L 248.188829 410.631722 
L 248.595053 406.250683 
L 249.001278 405.443893 
L 249.407502 397.930472 
L 249.813726 399.70534 
L 250.219951 405.034476 
L 250.626175 399.461291 
L 251.0324 403.566262 
L 251.438624 406.501192 
L 251.844848 401.960956 
L 252.251073 411.833629 
L 252.657297 401.948191 
L 253.063522 402.520951 
L 253.469746 399.276785 
L 253.875971 403.02624 
L 254.282195 400.225678 
L 254.688419 406.428058 
L 255.094644 401.20059 
L 255.500868 403.679889 
L 255.907093 401.464277 
L 256.313317 397.400124 
L 256.719541 405.107696 
L 257.125766 403.780943 
L 257.53199 400.873252 
L 257.938215 399.648215 
L 258.344439 403.060292 
L 258.750663 399.915443 
L 259.156888 402.145404 
L 259.563112 402.599144 
L 259.969337 392.229532 
L 260.375561 393.207631 
L 260.781785 404.129895 
L 261.18801 406.137958 
L 261.594234 388.674151 
L 262.000459 403.888523 
L 262.812907 394.01562 
L 263.219132 396.250246 
L 263.625356 390.151847 
L 264.031581 392.742297 
L 264.437805 400.439936 
L 264.844029 397.148319 
L 265.250254 403.148226 
L 265.656478 403.959556 
L 266.062703 396.703909 
L 266.468927 400.111408 
L 266.875152 400.985794 
L 267.281376 397.521976 
L 267.6876 399.547276 
L 268.093825 409.633613 
L 268.500049 396.603555 
L 268.906274 398.363211 
L 269.718722 390.150158 
L 270.124947 397.4565 
L 270.531171 390.677531 
L 270.937396 400.72827 
L 271.34362 389.915361 
L 271.749844 393.578408 
L 272.156069 390.60743 
L 272.562293 400.154578 
L 273.374742 388.831592 
L 273.780966 398.312133 
L 274.187191 397.162908 
L 274.593415 391.174997 
L 274.99964 396.37993 
L 275.405864 382.575561 
L 275.812088 395.337315 
L 276.218313 400.229824 
L 276.624537 396.794914 
L 277.030762 390.583359 
L 277.436986 393.303262 
L 277.84321 407.029045 
L 278.249435 396.016293 
L 278.655659 393.764833 
L 279.061884 393.353937 
L 279.468108 386.87169 
L 279.874333 389.734176 
L 280.280557 402.10662 
L 280.686781 390.615223 
L 281.093006 399.589026 
L 281.49923 389.637796 
L 281.905455 386.467877 
L 282.311679 385.371439 
L 282.717903 392.998497 
L 283.124128 385.339249 
L 283.530352 386.23308 
L 283.936577 386.123782 
L 284.342801 393.444501 
L 284.749025 390.19615 
L 285.15525 398.877032 
L 285.561474 385.998513 
L 285.967699 391.840596 
L 286.373923 389.948319 
L 286.780147 393.139295 
L 287.186372 382.662209 
L 287.592596 385.55297 
L 287.998821 386.492179 
L 288.405045 386.614223 
L 288.811269 381.037822 
L 289.217494 382.110074 
L 289.623718 389.176897 
L 290.029943 384.706993 
L 290.436167 390.941716 
L 290.842391 385.947338 
L 291.248616 388.387507 
L 291.65484 378.324753 
L 292.061065 374.5378 
L 292.467289 383.570072 
L 292.873514 372.874005 
L 293.279738 395.070039 
L 293.685962 392.589771 
L 294.092187 393.626665 
L 294.498411 386.872035 
L 294.904636 391.245233 
L 295.31086 376.406831 
L 295.717084 386.014522 
L 296.123309 369.397536 
L 296.529533 381.136371 
L 296.935758 376.511733 
L 297.341982 384.488377 
L 297.748206 380.076443 
L 298.154431 373.553002 
L 298.560655 375.772732 
L 298.96688 369.342139 
L 299.373104 374.543405 
L 299.779328 375.621741 
L 300.185553 370.150071 
L 300.591777 386.571839 
L 300.998002 377.587517 
L 301.404226 379.690501 
L 301.81045 370.888324 
L 302.216675 391.181178 
L 302.622899 372.711535 
L 303.029124 380.776439 
L 303.435348 384.227742 
L 303.841572 368.015318 
L 304.247797 368.194603 
L 304.654021 375.08408 
L 305.060246 378.014633 
L 305.46647 361.484909 
L 305.872695 375.938023 
L 306.278919 370.228234 
L 306.685143 379.495323 
L 307.091368 364.816107 
L 307.497592 376.119054 
L 307.903817 365.379759 
L 308.310041 370.749868 
L 308.716265 366.206368 
L 309.12249 387.536175 
L 309.528714 356.133363 
L 309.934939 350.692636 
L 310.341163 374.193493 
L 310.747387 363.630046 
L 311.153612 359.829177 
L 311.559836 367.60903 
L 311.966061 365.561271 
L 312.372285 358.659221 
L 312.778509 363.898225 
L 313.184734 366.424216 
L 313.590958 354.746519 
L 313.997183 369.35594 
L 314.403407 352.936744 
L 314.809631 366.250691 
L 315.215856 364.368011 
L 315.62208 358.750149 
L 316.028305 355.402059 
L 316.434529 364.70631 
L 316.840753 356.433463 
L 317.246978 353.581458 
L 317.653202 351.869579 
L 318.059427 355.86077 
L 318.465651 351.175283 
L 318.871876 341.732116 
L 319.2781 358.857643 
L 319.684324 347.431462 
L 320.090549 364.359642 
L 320.496773 368.74071 
L 320.902998 358.727307 
L 321.309222 356.868698 
L 321.715446 351.199949 
L 322.121671 361.987827 
L 322.527895 332.871104 
L 322.93412 345.8857 
L 323.340344 340.391494 
L 323.746568 347.293812 
L 324.152793 349.355949 
L 324.559017 356.689644 
L 324.965242 360.05357 
L 325.371466 349.392343 
L 325.77769 347.526402 
L 326.183915 343.133663 
L 326.590139 334.933413 
L 326.996364 344.725495 
L 327.402588 335.468925 
L 327.808812 347.348845 
L 328.215037 323.642848 
L 328.621261 346.936491 
L 329.027486 327.445426 
L 329.43371 341.173896 
L 329.839934 332.205007 
L 330.246159 350.027421 
L 330.652383 337.771349 
L 331.058608 334.531233 
L 331.464832 348.652939 
L 331.871057 322.721452 
L 332.277281 348.028725 
L 332.683505 327.711972 
L 333.08973 330.219325 
L 333.495954 335.121643 
L 333.902179 305.280488 
L 334.308403 337.505589 
L 334.714627 319.896358 
L 335.120852 341.672149 
L 335.527076 325.534529 
L 335.933301 316.482755 
L 336.339525 327.384308 
L 336.745749 311.584295 
L 337.151974 314.309247 
L 337.558198 324.801882 
L 337.964423 313.785291 
L 338.370647 318.564163 
L 338.776871 318.416282 
L 339.183096 329.546126 
L 339.58932 328.872369 
L 339.995545 314.111669 
L 340.401769 317.345067 
L 340.807993 328.00067 
L 341.214218 331.02743 
L 341.620442 337.55542 
L 342.026667 317.27869 
L 342.432891 333.497602 
L 342.839115 327.502282 
L 343.24534 310.144818 
L 343.651564 329.706407 
L 344.057789 308.386524 
L 344.464013 307.574408 
L 344.870238 293.96157 
L 345.276462 312.031201 
L 345.682686 307.97369 
L 346.088911 322.659835 
L 346.495135 300.9934 
L 346.90136 312.907968 
L 347.307584 295.482148 
L 347.713808 315.111631 
L 348.120033 297.62097 
L 348.526257 304.566901 
L 348.932482 294.725507 
L 349.74493 305.777954 
L 350.151155 311.219373 
L 350.557379 285.345587 
L 350.963604 273.827192 
L 351.369828 289.349678 
L 351.776052 311.224114 
L 352.182277 298.867938 
L 352.588501 299.326553 
L 352.994726 306.725858 
L 353.40095 296.80655 
L 353.807174 310.051778 
L 354.213399 284.074971 
L 354.619623 303.207179 
L 355.025848 282.349137 
L 355.432072 281.114339 
L 355.838296 288.39066 
L 356.244521 291.387245 
L 356.650745 281.200085 
L 357.05697 289.419703 
L 357.463194 241.38979 
L 357.869419 267.640879 
L 358.275643 261.41702 
L 358.681867 273.477396 
L 359.088092 265.743112 
L 359.494316 290.948746 
L 359.900541 260.167211 
L 360.306765 282.793797 
L 360.712989 278.393457 
L 361.119214 268.218812 
L 361.525438 274.684955 
L 361.931663 278.86977 
L 362.337887 287.972105 
L 362.744111 281.352515 
L 363.150336 281.994561 
L 363.55656 298.335306 
L 363.962785 270.877559 
L 364.369009 269.009469 
L 364.775233 289.031899 
L 365.181458 262.587993 
L 365.587682 279.72356 
L 365.993907 273.297324 
L 366.400131 284.267846 
L 366.806355 266.256204 
L 367.21258 289.50399 
L 367.618804 248.700835 
L 368.025029 262.852102 
L 368.431253 264.598264 
L 368.837477 264.214971 
L 369.243702 285.497922 
L 369.649926 262.623428 
L 370.056151 257.76405 
L 370.462375 221.345707 
L 370.8686 256.48374 
L 371.274824 264.000252 
L 371.681048 239.54101 
L 372.087273 257.236658 
L 372.493497 251.157493 
L 372.899722 276.756862 
L 373.305946 283.772491 
L 373.71217 250.31931 
L 374.118395 274.789032 
L 374.930844 246.965423 
L 375.337068 241.055753 
L 375.743292 241.96567 
L 376.149517 234.236224 
L 376.555741 241.716917 
L 376.961966 236.136601 
L 377.36819 249.058828 
L 377.774414 227.012325 
L 378.180639 231.883527 
L 378.586863 246.61862 
L 379.399312 226.692262 
L 379.805536 234.030987 
L 380.211761 243.479433 
L 380.617985 240.943652 
L 381.02421 240.322894 
L 381.430434 221.311885 
L 381.836658 227.946563 
L 382.242883 241.212924 
L 382.649107 220.936923 
L 383.055332 231.235377 
L 383.461556 247.823973 
L 383.867781 228.702898 
L 384.274005 250.828677 
L 384.680229 234.812583 
L 385.086454 243.629464 
L 385.492678 228.21906 
L 385.898903 244.245558 
L 386.305127 242.632189 
L 386.711351 242.592397 
L 387.117576 205.747687 
L 387.5238 239.334967 
L 387.930025 233.447948 
L 388.336249 215.453927 
L 388.742473 209.446207 
L 389.148698 192.67731 
L 389.554922 227.900955 
L 389.961147 209.657548 
L 390.367371 228.880147 
L 390.773595 199.820396 
L 391.586044 214.689952 
L 391.992269 215.11655 
L 392.398493 240.3676 
L 392.804717 226.632258 
L 393.210942 229.003228 
L 393.617166 209.616816 
L 394.023391 204.226648 
L 394.429615 214.898644 
L 394.835839 216.837374 
L 395.242064 200.981561 
L 395.648288 214.346932 
L 396.054513 223.367552 
L 396.460737 203.253061 
L 396.866962 228.272193 
L 397.273186 185.74307 
L 397.67941 196.620225 
L 398.085635 218.830772 
L 398.491859 233.143663 
L 398.898084 224.755798 
L 399.304308 228.627729 
L 399.710532 207.703155 
L 400.116757 207.172673 
L 400.522981 188.07469 
L 400.929206 215.377222 
L 401.33543 171.588041 
L 401.741654 195.258047 
L 402.554103 178.798349 
L 402.960328 191.496566 
L 403.366552 225.431551 
L 403.772776 196.008777 
L 404.179001 180.082824 
L 404.585225 218.137436 
L 405.397674 170.46757 
L 405.803898 192.246413 
L 406.210123 203.744615 
L 406.616347 160.623892 
L 407.022572 187.1102 
L 407.428796 169.452866 
L 407.83502 213.013546 
L 408.241245 195.889267 
L 408.647469 189.682568 
L 409.053694 186.238386 
L 409.459918 159.660247 
L 409.866143 158.124965 
L 410.272367 187.838817 
L 410.678591 179.07933 
L 411.084816 143.246771 
L 411.49104 177.39801 
L 411.897265 136.255252 
L 412.303489 188.472263 
L 412.709713 122.398595 
L 413.115938 169.109845 
L 413.522162 139.417646 
L 413.928387 164.677564 
L 414.334611 152.634944 
L 414.740835 174.266789 
L 415.14706 155.618553 
L 415.553284 162.444531 
L 415.959509 151.630682 
L 416.365733 162.44553 
L 416.771957 122.248257 
L 417.178182 168.491295 
L 417.584406 119.387729 
L 417.990631 135.77867 
L 418.396855 120.955758 
L 418.803079 165.648196 
L 419.209304 144.976502 
L 419.615528 134.931042 
L 420.021753 145.178321 
L 420.427977 159.826517 
L 420.834201 112.266449 
L 421.240426 183.041057 
L 421.64665 131.345083 
L 422.052875 131.076924 
L 422.459099 157.081929 
L 422.865324 159.552254 
L 423.271548 135.843166 
L 423.677772 156.715874 
L 424.083997 135.296713 
L 424.490221 130.846158 
L 424.896446 135.608714 
L 425.30267 122.685757 
L 425.708894 146.819792 
L 426.115119 128.270066 
L 426.521343 170.212464 
L 426.927568 101.661022 
L 427.333792 157.797454 
L 427.740016 112.49902 
L 428.146241 151.266854 
L 428.552465 159.334195 
L 428.95869 141.63655 
L 429.364914 137.180467 
L 429.771138 153.937233 
L 430.177363 140.839598 
L 430.583587 110.247252 
L 431.396036 140.143767 
L 431.80226 136.309843 
L 432.614709 121.229791 
L 433.427158 151.329814 
L 433.833382 110.27332 
L 434.239607 134.974845 
L 434.645831 85.302368 
L 435.052056 77.573095 
L 435.45828 86.027722 
L 435.864505 113.092232 
L 436.270729 93.423457 
L 436.676953 104.646512 
L 437.083178 119.022365 
L 437.489402 120.173164 
L 437.895627 131.400289 
L 438.301851 108.098756 
L 438.708075 131.520413 
L 439.1143 128.200233 
L 439.520524 134.721621 
L 439.926749 106.533338 
L 440.332973 131.483635 
L 440.739197 77.346974 
L 441.145422 105.45264 
L 441.551646 107.27996 
L 441.957871 91.620784 
L 442.364095 136.927396 
L 442.770319 104.932139 
L 443.176544 127.237817 
L 443.582768 105.823647 
L 443.988993 123.971384 
L 444.395217 107.000629 
L 444.801441 115.686598 
L 445.207666 116.471496 
L 445.61389 84.271271 
L 446.020115 111.870411 
L 446.426339 94.675185 
L 446.832563 125.99703 
L 447.238788 99.282758 
L 447.645012 63.430428 
L 448.051237 96.928987 
L 448.457461 75.899645 
L 448.863686 145.158819 
L 449.26991 133.734059 
L 449.676134 105.286562 
L 450.082359 87.995167 
L 450.488583 90.125236 
L 451.301032 127.261965 
L 451.707256 98.465727 
L 452.519705 120.847381 
L 452.92593 77.452548 
L 453.332154 92.908638 
L 453.738378 87.356039 
L 454.144603 110.762302 
L 454.550827 76.616629 
L 454.957052 71.047907 
L 455.363276 49.474838 
L 456.175725 60.427585 
L 456.581949 49.115501 
L 456.988174 47.170514 
L 457.394398 74.578737 
L 457.800622 82.987986 
L 458.206847 37.652696 
L 458.613071 58.120535 
L 459.019296 27.36 
L 459.42552 73.952086 
L 459.831744 66.237555 
L 460.237969 88.2067 
L 460.644193 28.636682 
L 461.050418 82.471209 
L 461.456642 79.181319 
L 461.862867 112.657343 
L 462.269091 58.084794 
L 462.269091 58.084794 
" clip-path="url(#pb0b101dd36)" style="fill: none; stroke: #2ca02c; stroke-width: 1.5; stroke-linecap: round"/>
   </g>
   <g id="line2d_3">
    <path d="M 56.450909 408.52177 
L 56.857133 392.765523 
L 57.263358 391.314586 
L 57.669582 399.470188 
L 58.075807 391.554892 
L 58.482031 400.094171 
L 58.888256 387.714096 
L 59.29448 406.728983 
L 59.700704 407.366153 
L 60.106929 405.986373 
L 60.513153 397.808082 
L 60.919378 400.233059 
L 61.325602 393.362902 
L 61.731826 406.31589 
L 62.138051 398.636179 
L 62.544275 403.534821 
L 62.9505 403.973703 
L 63.356724 398.247694 
L 63.762948 401.708835 
L 64.169173 395.417245 
L 64.575397 396.417994 
L 64.981622 389.199758 
L 65.387846 402.980037 
L 65.79407 403.242159 
L 66.200295 404.315793 
L 66.606519 397.967845 
L 67.012744 404.448519 
L 67.418968 393.920354 
L 67.825192 406.860164 
L 68.231417 394.997827 
L 68.637641 403.217915 
L 69.043866 399.497253 
L 69.45009 399.892466 
L 69.856314 388.792932 
L 70.262539 388.989377 
L 70.668763 401.902199 
L 71.074988 393.176016 
L 71.481212 392.86198 
L 71.887437 403.869501 
L 72.293661 393.803262 
L 72.699885 392.660333 
L 73.10611 398.838795 
L 73.512334 387.313605 
L 73.918559 386.056751 
L 74.324783 402.437874 
L 74.731007 392.410064 
L 75.137232 412.726299 
L 75.543456 403.614903 
L 75.949681 405.787288 
L 76.355905 391.080288 
L 76.762129 385.353972 
L 77.168354 386.648928 
L 77.574578 398.081462 
L 77.980803 380.164281 
L 78.387027 396.702949 
L 78.793251 405.564594 
L 79.199476 401.298054 
L 79.6057 400.995728 
L 80.011925 382.089842 
L 80.418149 376.600473 
L 80.824373 386.280857 
L 81.230598 400.865094 
L 81.636822 403.548276 
L 82.043047 398.378673 
L 82.449271 381.626697 
L 82.855495 407.702916 
L 83.26172 393.051323 
L 84.074169 399.544934 
L 84.480393 375.586575 
L 84.886618 393.284873 
L 85.292842 397.575876 
L 85.699066 392.324568 
L 86.105291 405.026644 
L 86.511515 389.761529 
L 86.91774 387.768362 
L 87.323964 382.612263 
L 87.730188 380.986302 
L 88.136413 383.716724 
L 88.542637 383.071223 
L 88.948862 382.978356 
L 89.355086 394.811632 
L 89.76131 383.975362 
L 90.167535 395.251416 
L 90.573759 389.326793 
L 90.979984 394.287215 
L 91.386208 390.139274 
L 92.198657 397.921527 
L 92.604881 387.674535 
L 93.011106 395.998672 
L 93.41733 379.959409 
L 93.823554 372.101661 
L 94.636003 388.8395 
L 95.042228 384.030126 
L 95.448452 391.223139 
L 95.854676 376.264958 
L 96.260901 390.282452 
L 96.667125 370.440611 
L 97.07335 373.32164 
L 97.479574 395.860446 
L 97.885799 380.439619 
L 98.292023 394.828466 
L 98.698247 387.840267 
L 99.104472 389.973887 
L 99.510696 384.31297 
L 99.916921 397.908013 
L 100.323145 379.869306 
L 100.729369 377.114064 
L 101.135594 370.073923 
L 101.541818 392.031148 
L 101.948043 367.57133 
L 102.354267 377.200462 
L 102.760491 373.03156 
L 103.166716 378.653377 
L 103.57294 380.694763 
L 103.979165 365.835802 
L 104.385389 371.972976 
L 104.791613 387.45805 
L 105.197838 379.18743 
L 105.604062 378.63303 
L 106.010287 380.929177 
L 106.416511 391.432906 
L 106.822735 371.203569 
L 107.22896 391.416974 
L 107.635184 383.284599 
L 108.041409 381.174032 
L 108.447633 388.629042 
L 108.853857 372.881126 
L 109.260082 365.912277 
L 109.666306 382.672306 
L 110.072531 381.951098 
L 110.478755 375.766666 
L 110.88498 376.038069 
L 111.291204 359.624458 
L 111.697428 379.412073 
L 112.103653 373.42566 
L 112.509877 371.250693 
L 112.916102 383.213192 
L 113.322326 371.326188 
L 113.72855 373.685123 
L 114.134775 383.259817 
L 114.540999 354.166609 
L 114.947224 358.757482 
L 115.353448 386.564372 
L 115.759672 355.971009 
L 116.165897 362.412044 
L 116.572121 380.761716 
L 116.978346 367.836821 
L 117.38457 367.20706 
L 117.790794 371.776454 
L 118.603243 371.365904 
L 119.009468 368.174524 
L 119.415692 372.203665 
L 119.821916 368.850277 
L 120.228141 376.421995 
L 121.04059 355.789076 
L 121.446814 378.376542 
L 121.853038 368.065936 
L 122.259263 366.802461 
L 122.665487 358.962066 
L 123.071712 366.667959 
L 123.477936 363.07152 
L 123.884161 348.86282 
L 124.290385 362.623385 
L 124.696609 359.17809 
L 125.102834 372.584155 
L 125.509058 363.243107 
L 125.915283 363.119738 
L 126.321507 351.310879 
L 126.727731 365.325091 
L 127.133956 365.070254 
L 127.54018 351.391615 
L 127.946405 357.444194 
L 128.352629 338.935086 
L 128.758853 355.839444 
L 129.165078 353.201889 
L 129.571302 367.794457 
L 129.977527 357.943676 
L 130.383751 365.10469 
L 130.789975 351.915878 
L 131.1962 357.927513 
L 132.008649 346.054196 
L 132.414873 344.10894 
L 132.821097 338.404853 
L 133.227322 324.24537 
L 133.633546 346.782852 
L 134.039771 331.342406 
L 134.852219 354.566448 
L 135.258444 353.415245 
L 135.664668 338.983938 
L 136.070893 343.856598 
L 136.477117 362.045912 
L 136.883342 329.188497 
L 137.289566 356.385705 
L 137.69579 345.612435 
L 138.102015 351.744847 
L 138.508239 341.084522 
L 138.914464 321.264218 
L 139.320688 346.019722 
L 139.726912 342.404778 
L 140.133137 347.398753 
L 140.539361 330.764147 
L 140.945586 331.721879 
L 141.35181 334.546742 
L 141.758034 324.878759 
L 142.164259 326.112348 
L 142.570483 332.247409 
L 142.976708 336.090777 
L 143.382932 335.640032 
L 143.789156 322.95671 
L 144.195381 360.975407 
L 144.601605 342.534826 
L 145.00783 333.739885 
L 145.414054 331.697501 
L 146.226503 351.642882 
L 146.632727 353.318942 
L 147.038952 328.328603 
L 147.445176 344.067325 
L 147.8514 347.575101 
L 148.257625 328.619106 
L 148.663849 339.419883 
L 149.070074 335.011922 
L 149.476298 322.532647 
L 149.882523 315.183441 
L 150.288747 343.654971 
L 150.694971 323.839657 
L 151.101196 339.044365 
L 151.50742 320.123746 
L 151.913645 328.645326 
L 152.319869 310.881151 
L 152.726093 336.741461 
L 153.132318 321.842421 
L 153.538542 317.165207 
L 153.944767 309.115141 
L 154.350991 316.656684 
L 154.757215 327.931989 
L 155.16344 320.808176 
L 155.569664 316.494061 
L 155.975889 285.386934 
L 156.382113 298.471477 
L 156.788337 321.111635 
L 157.194562 304.378153 
L 157.600786 317.07257 
L 158.007011 309.264711 
L 158.413235 312.22375 
L 158.819459 326.003779 
L 159.225684 304.867749 
L 160.038133 315.650157 
L 160.444357 315.9602 
L 160.850581 310.545559 
L 161.256806 310.128693 
L 161.66303 297.998831 
L 162.069255 310.427488 
L 162.475479 272.890575 
L 162.881704 295.605728 
L 163.287928 274.443324 
L 163.694152 284.123439 
L 164.100377 281.496787 
L 164.506601 301.465375 
L 164.912826 281.159774 
L 165.31905 301.376884 
L 165.725274 295.657575 
L 166.131499 301.905601 
L 166.537723 301.605846 
L 166.943948 296.755721 
L 167.350172 314.917336 
L 167.756396 308.666008 
L 168.162621 304.203706 
L 168.568845 313.34662 
L 168.97507 307.26997 
L 169.381294 297.217292 
L 169.787518 301.800986 
L 170.193743 280.243658 
L 170.599967 311.213499 
L 171.006192 295.907076 
L 171.412416 298.537452 
L 171.81864 307.641515 
L 172.224865 312.326503 
L 172.631089 278.017766 
L 173.037314 309.70248 
L 173.443538 285.538002 
L 174.255987 305.784864 
L 174.662211 300.656406 
L 175.068436 290.124517 
L 175.47466 257.544014 
L 175.880885 281.706765 
L 176.287109 285.306314 
L 176.693333 282.724886 
L 177.099558 292.302709 
L 177.505782 274.160673 
L 177.912007 304.892185 
L 178.724455 283.419431 
L 179.13068 306.193207 
L 179.536904 292.143714 
L 179.943129 290.446347 
L 180.349353 276.827002 
L 180.755577 272.406507 
L 181.161802 259.986775 
L 181.568026 282.31472 
L 181.974251 265.21764 
L 182.380475 284.387202 
L 182.786699 266.916908 
L 183.192924 264.30947 
L 183.599148 283.556351 
L 184.005373 276.839402 
L 184.411597 267.251329 
L 184.817821 271.052429 
L 185.224046 265.215778 
L 185.63027 289.24347 
L 186.036495 282.671101 
L 186.442719 267.491405 
L 186.848943 266.850223 
L 187.255168 274.702769 
L 187.661392 279.006825 
L 188.067617 264.295592 
L 188.473841 288.504219 
L 188.880066 267.394756 
L 189.28629 285.555047 
L 189.692514 272.049358 
L 190.098739 283.692062 
L 190.504963 261.966467 
L 190.911188 272.128308 
L 191.317412 274.951751 
L 191.723636 276.449967 
L 192.129861 261.271481 
L 192.536085 281.409544 
L 193.348534 249.145822 
L 193.754758 257.137802 
L 194.160983 238.190598 
L 194.567207 254.029558 
L 194.973432 253.099409 
L 195.379656 277.381191 
L 195.78588 242.404705 
L 196.192105 248.047253 
L 196.598329 264.787242 
L 197.004554 249.481356 
L 197.410778 273.935915 
L 197.817002 263.043268 
L 198.223227 267.962804 
L 198.629451 254.02737 
L 199.035676 254.729267 
L 199.4419 249.721739 
L 199.848124 271.721482 
L 200.254349 237.74494 
L 200.660573 252.584897 
L 201.066798 262.14341 
L 201.879247 240.962675 
L 202.285471 221.980804 
L 202.691695 240.908467 
L 203.09792 270.032619 
L 203.504144 251.088851 
L 204.316593 264.007182 
L 205.535266 248.316391 
L 205.941491 222.836033 
L 206.347715 235.743903 
L 206.753939 216.497386 
L 207.160164 240.380154 
L 207.566388 228.487411 
L 207.972613 229.347746 
L 208.378837 252.477864 
L 208.785061 229.500656 
L 209.191286 231.253114 
L 209.59751 248.467189 
L 210.003735 232.84698 
L 210.409959 201.569783 
L 210.816183 227.855999 
L 211.222408 228.245626 
L 211.628632 218.878376 
L 212.034857 202.973576 
L 212.441081 235.152916 
L 212.847305 239.180809 
L 213.25353 221.894655 
L 213.659754 226.00146 
L 214.065979 204.045905 
L 214.472203 202.734287 
L 214.878428 193.815939 
L 215.284652 248.871981 
L 216.097101 182.038945 
L 216.503325 205.114778 
L 216.90955 164.151535 
L 217.315774 229.184701 
L 217.721998 168.302681 
L 218.128223 194.160995 
L 218.534447 188.986852 
L 218.940672 201.169214 
L 219.346896 234.868249 
L 219.75312 216.451471 
L 220.159345 212.530246 
L 220.565569 215.65805 
L 220.971794 195.667484 
L 221.378018 199.854372 
L 221.784242 165.98922 
L 222.190467 201.116389 
L 222.596691 179.172658 
L 223.002916 176.627355 
L 223.40914 162.687736 
L 223.815364 192.550506 
L 224.221589 201.986552 
L 224.627813 184.974028 
L 225.034038 190.649054 
L 225.440262 203.419907 
L 225.846486 172.020742 
L 226.252711 246.974425 
L 226.658935 179.936018 
L 227.06516 208.554814 
L 227.471384 221.341177 
L 227.877609 219.186692 
L 228.283833 190.964548 
L 228.690057 218.11586 
L 229.096282 184.144175 
L 229.502506 181.424118 
L 229.908731 210.462601 
L 230.314955 184.889875 
L 230.721179 209.150138 
L 231.127404 209.960681 
L 231.533628 232.107691 
L 231.939853 175.174498 
L 232.346077 216.557199 
L 232.752301 165.324293 
L 233.158526 214.596893 
L 233.56475 208.79752 
L 233.970975 209.875914 
L 234.377199 217.341751 
L 235.595872 199.742616 
L 236.002097 210.530283 
L 236.408321 196.321738 
L 236.814545 232.443187 
L 237.22077 207.994617 
L 237.626994 198.420365 
L 238.439443 191.25052 
L 239.251892 175.800497 
L 239.658116 185.171049 
L 240.064341 185.50666 
L 240.470565 186.763494 
L 240.87679 152.807241 
L 241.283014 192.269179 
L 241.689238 183.329064 
L 242.095463 190.07208 
L 242.501687 192.640916 
L 242.907912 217.603114 
L 243.314136 191.26818 
L 243.72036 182.056528 
L 244.126585 212.592439 
L 244.532809 157.407904 
L 244.939034 202.881823 
L 245.345258 167.167392 
L 245.751482 193.121836 
L 246.157707 158.223092 
L 246.563931 178.559098 
L 246.970156 161.505419 
L 247.37638 188.936944 
L 247.782604 173.422232 
L 248.188829 202.602185 
L 249.001278 190.945391 
L 249.407502 223.718904 
L 249.813726 184.841848 
L 250.219951 185.587395 
L 250.626175 159.292963 
L 251.0324 183.465427 
L 251.438624 187.117687 
L 251.844848 181.349333 
L 252.251073 193.516569 
L 252.657297 149.137553 
L 253.063522 184.585821 
L 253.469746 130.440982 
L 253.875971 191.118456 
L 254.282195 164.555098 
L 254.688419 190.837552 
L 255.094644 155.152835 
L 255.500868 190.080603 
L 255.907093 162.109496 
L 256.313317 200.111973 
L 256.719541 157.153297 
L 257.125766 166.771008 
L 257.53199 159.363026 
L 257.938215 148.459727 
L 258.344439 149.969479 
L 258.750663 171.501508 
L 259.156888 151.890318 
L 259.563112 115.380855 
L 259.969337 190.635655 
L 260.375561 114.565206 
L 260.781785 174.373592 
L 261.18801 130.808266 
L 261.594234 135.365279 
L 262.000459 124.944742 
L 262.406683 159.752961 
L 262.812907 145.812843 
L 263.219132 146.170797 
L 263.625356 145.114209 
L 264.031581 164.757378 
L 264.844029 112.166249 
L 265.250254 136.694249 
L 265.656478 116.223569 
L 266.062703 119.677233 
L 266.468927 143.300019 
L 266.875152 149.758023 
L 267.281376 109.087777 
L 267.6876 144.904212 
L 268.093825 95.833163 
L 268.500049 199.486704 
L 268.906274 130.011007 
L 269.312498 140.741856 
L 269.718722 167.084046 
L 270.124947 167.299955 
L 270.531171 166.085965 
L 270.937396 168.322913 
L 271.34362 158.475204 
L 271.749844 165.021276 
L 272.156069 196.446584 
L 272.562293 152.491632 
L 272.968518 163.703093 
L 273.374742 184.165904 
L 273.780966 160.678099 
L 274.187191 160.753192 
L 274.593415 154.693913 
L 274.99964 160.545536 
L 275.405864 191.188481 
L 275.812088 158.383488 
L 276.218313 147.39331 
L 276.624537 169.34184 
L 277.030762 123.965856 
L 277.436986 181.459053 
L 277.84321 188.868148 
L 278.249435 177.434558 
L 278.655659 205.412613 
L 279.061884 210.352189 
L 279.468108 198.248989 
L 279.874333 213.249918 
L 280.686781 179.915134 
L 281.093006 168.270011 
L 281.49923 169.533218 
L 281.905455 187.254204 
L 282.311679 146.100619 
L 282.717903 166.745785 
L 283.124128 154.683164 
L 283.530352 202.042142 
L 284.342801 134.480066 
L 284.749025 183.295894 
L 285.15525 143.618047 
L 285.561474 188.875558 
L 285.967699 194.391646 
L 286.373923 180.980936 
L 287.186372 204.994193 
L 287.592596 164.817153 
L 287.998821 184.661297 
L 288.405045 170.685514 
L 288.811269 170.418507 
L 289.217494 196.99012 
L 289.623718 177.825989 
L 290.029943 214.742087 
L 290.436167 179.984697 
L 290.842391 187.601294 
L 291.248616 149.20059 
L 291.65484 218.349391 
L 292.061065 180.126743 
L 292.467289 202.778245 
L 292.873514 150.716792 
L 293.279738 182.024778 
L 293.685962 180.442161 
L 294.092187 168.757496 
L 294.498411 201.664531 
L 294.904636 190.341429 
L 295.31086 201.268953 
L 295.717084 225.548988 
L 296.123309 194.823772 
L 296.529533 191.319854 
L 296.935758 228.173298 
L 297.341982 214.136244 
L 297.748206 204.015039 
L 298.154431 216.181968 
L 298.560655 182.481359 
L 298.96688 213.763393 
L 299.373104 212.221585 
L 299.779328 196.641302 
L 300.185553 201.161229 
L 300.591777 171.939699 
L 300.998002 224.887056 
L 301.81045 189.562482 
L 302.622899 238.796499 
L 303.029124 220.263742 
L 303.435348 218.793226 
L 303.841572 205.444785 
L 304.247797 214.336758 
L 304.654021 230.351048 
L 305.060246 202.316481 
L 305.46647 202.673323 
L 305.872695 252.311095 
L 306.685143 210.483255 
L 307.091368 253.05741 
L 307.497592 221.520269 
L 307.903817 239.067211 
L 308.310041 236.242406 
L 308.716265 223.04438 
L 309.12249 220.2285 
L 309.528714 262.417788 
L 309.934939 219.645192 
L 310.341163 255.780346 
L 310.747387 236.835273 
L 311.153612 246.306005 
L 311.559836 249.219724 
L 311.966061 199.245534 
L 312.372285 227.353196 
L 312.778509 210.881558 
L 313.184734 211.356566 
L 313.590958 233.574599 
L 313.997183 215.374535 
L 314.403407 218.273185 
L 314.809631 229.721172 
L 315.215856 215.06979 
L 315.62208 223.449171 
L 316.028305 247.212889 
L 316.434529 203.932806 
L 316.840753 238.649789 
L 317.246978 227.147921 
L 317.653202 228.809585 
L 318.059427 244.169314 
L 318.465651 228.940306 
L 318.871876 265.264265 
L 319.2781 235.919617 
L 319.684324 238.679062 
L 320.090549 271.470676 
L 320.496773 267.074904 
L 320.902998 269.495878 
L 321.309222 234.720023 
L 321.715446 247.157165 
L 322.121671 217.773569 
L 322.527895 264.313981 
L 322.93412 280.383438 
L 323.340344 264.748487 
L 323.746568 260.657575 
L 324.152793 249.436957 
L 324.559017 260.746642 
L 324.965242 245.188164 
L 325.371466 246.304604 
L 325.77769 261.076667 
L 326.183915 229.615175 
L 326.590139 270.59057 
L 326.996364 258.75716 
L 327.402588 266.352181 
L 327.808812 241.252255 
L 328.215037 277.632784 
L 328.621261 258.04578 
L 329.027486 267.401321 
L 329.43371 242.606775 
L 329.839934 244.063855 
L 330.246159 266.63631 
L 330.652383 237.50448 
L 331.058608 293.265317 
L 331.464832 273.835446 
L 331.871057 262.788277 
L 332.277281 257.953988 
L 332.683505 264.853197 
L 333.08973 288.197209 
L 333.495954 252.333515 
L 333.902179 275.126794 
L 334.308403 235.611455 
L 334.714627 271.448832 
L 335.120852 263.414449 
L 335.527076 258.046126 
L 335.933301 270.737049 
L 336.339525 250.239975 
L 336.745749 295.296069 
L 337.558198 277.398044 
L 337.964423 293.027583 
L 338.370647 287.553877 
L 338.776871 304.427792 
L 339.183096 298.670303 
L 339.58932 287.469245 
L 339.995545 301.924009 
L 340.401769 269.982423 
L 341.214218 291.035682 
L 341.620442 276.043256 
L 342.432891 267.923761 
L 342.839115 278.726266 
L 343.24534 282.062647 
L 343.651564 298.537049 
L 344.057789 301.870013 
L 344.464013 293.10039 
L 344.870238 296.301559 
L 345.276462 297.089624 
L 345.682686 290.781478 
L 346.088911 297.748658 
L 346.495135 268.760121 
L 346.90136 290.669147 
L 347.307584 275.31581 
L 347.713808 299.05133 
L 348.120033 292.775145 
L 348.526257 293.824669 
L 348.932482 278.267766 
L 349.338706 284.321036 
L 349.74493 315.374473 
L 350.151155 296.983915 
L 350.557379 293.259904 
L 350.963604 315.601113 
L 351.369828 321.024776 
L 351.776052 306.273002 
L 352.588501 291.340331 
L 352.994726 323.846606 
L 353.40095 288.292572 
L 353.807174 319.80758 
L 354.213399 298.295379 
L 354.619623 307.542966 
L 355.025848 300.95142 
L 355.432072 311.356197 
L 355.838296 297.765089 
L 356.244521 295.679131 
L 356.650745 310.416566 
L 357.05697 293.2996 
L 357.463194 299.681552 
L 357.869419 312.016709 
L 358.275643 281.271837 
L 358.681867 310.375123 
L 359.088092 303.931784 
L 359.494316 316.626144 
L 359.900541 303.515188 
L 360.306765 315.845469 
L 361.119214 302.42495 
L 361.525438 325.179416 
L 361.931663 299.12504 
L 362.337887 321.356894 
L 362.744111 331.630087 
L 363.150336 313.539226 
L 363.962785 330.884521 
L 364.369009 312.490565 
L 364.775233 316.672386 
L 365.181458 327.859277 
L 365.587682 312.65338 
L 365.993907 311.501583 
L 366.400131 305.870284 
L 366.806355 313.938047 
L 367.21258 315.080708 
L 367.618804 313.287805 
L 368.025029 315.811897 
L 368.431253 333.337513 
L 368.837477 321.49773 
L 369.243702 317.580997 
L 369.649926 329.410626 
L 370.056151 312.713845 
L 370.462375 331.04605 
L 370.8686 331.714374 
L 371.274824 316.078904 
L 371.681048 336.707197 
L 372.087273 329.127206 
L 372.493497 336.933683 
L 372.899722 308.234958 
L 373.305946 323.202718 
L 373.71217 348.443556 
L 374.118395 329.897631 
L 374.524619 332.70564 
L 374.930844 330.219786 
L 375.337068 333.01171 
L 375.743292 329.073882 
L 376.149517 337.420861 
L 376.555741 331.211321 
L 376.961966 317.378256 
L 377.36819 357.357719 
L 377.774414 343.824811 
L 378.180639 353.233293 
L 378.586863 323.777119 
L 378.993088 341.980311 
L 379.399312 328.15932 
L 379.805536 340.859822 
L 380.211761 330.596725 
L 380.617985 325.822536 
L 381.02421 315.080036 
L 381.430434 319.123976 
L 381.836658 349.380826 
L 382.242883 334.65654 
L 382.649107 366.751113 
L 383.055332 336.802003 
L 383.461556 346.636353 
L 383.867781 320.716978 
L 384.274005 351.897604 
L 385.086454 340.122605 
L 385.492678 330.795973 
L 385.898903 334.159995 
L 386.305127 338.457793 
L 386.711351 329.135844 
L 387.117576 328.113136 
L 387.930025 349.109903 
L 388.336249 349.681156 
L 388.742473 338.415141 
L 389.148698 344.175625 
L 389.554922 334.402989 
L 389.961147 329.845573 
L 390.367371 302.772578 
L 390.773595 332.801963 
L 391.17982 330.865249 
L 391.586044 342.175586 
L 391.992269 322.358852 
L 392.398493 328.512264 
L 392.804717 329.152218 
L 393.210942 334.252056 
L 393.617166 332.110239 
L 394.023391 354.795218 
L 394.429615 325.241417 
L 394.835839 344.810607 
L 395.242064 337.028143 
L 395.648288 342.361128 
L 396.054513 357.709838 
L 396.460737 357.130523 
L 396.866962 340.853641 
L 397.273186 355.169392 
L 397.67941 349.603492 
L 398.085635 349.336907 
L 398.491859 334.314978 
L 398.898084 351.187108 
L 399.710532 360.797102 
L 400.116757 362.093978 
L 400.522981 342.994996 
L 400.929206 339.76849 
L 401.33543 340.135965 
L 401.741654 330.703106 
L 402.147879 349.179735 
L 402.554103 332.416367 
L 402.960328 329.490401 
L 403.366552 349.814602 
L 403.772776 337.87938 
L 404.179001 336.854752 
L 404.585225 351.254003 
L 404.99145 323.606223 
L 405.397674 343.251293 
L 405.803898 338.584809 
L 406.210123 347.26523 
L 406.616347 337.92566 
L 407.428796 354.872268 
L 407.83502 341.741848 
L 408.241245 360.3649 
L 408.647469 347.526613 
L 409.053694 351.399312 
L 409.459918 349.962368 
L 409.866143 351.60618 
L 410.272367 352.682943 
L 410.678591 348.162997 
L 411.084816 348.055963 
L 411.49104 342.762118 
L 411.897265 353.296407 
L 412.303489 342.145622 
L 412.709713 335.697446 
L 413.115938 360.496311 
L 413.522162 344.487645 
L 413.928387 363.956348 
L 414.334611 342.888942 
L 414.740835 364.035049 
L 415.14706 351.38647 
L 415.553284 352.741853 
L 415.959509 350.74383 
L 416.365733 351.902096 
L 416.771957 347.790261 
L 417.178182 355.845932 
L 417.584406 340.12487 
L 417.990631 352.829 
L 418.396855 349.261085 
L 419.209304 369.09951 
L 419.615528 353.001183 
L 420.021753 345.837519 
L 420.427977 348.781624 
L 420.834201 362.805549 
L 421.240426 346.729181 
L 421.64665 358.980992 
L 422.052875 334.049218 
L 422.459099 365.325321 
L 422.865324 347.698335 
L 423.271548 361.57697 
L 423.677772 356.963331 
L 424.083997 355.434039 
L 424.896446 359.842594 
L 425.30267 353.146242 
L 425.708894 363.223777 
L 426.115119 357.433752 
L 426.521343 346.715879 
L 426.927568 374.789489 
L 427.740016 355.80662 
L 428.146241 370.74958 
L 428.552465 371.098436 
L 428.95869 378.440193 
L 429.364914 364.633598 
L 430.177363 375.680172 
L 430.583587 390.098599 
L 430.989812 374.920804 
L 431.396036 374.360108 
L 431.80226 378.175374 
L 432.208485 373.639438 
L 432.614709 383.701022 
L 433.020934 362.325281 
L 433.427158 371.915332 
L 433.833382 363.317604 
L 434.239607 380.780297 
L 434.645831 377.295153 
L 435.052056 370.323904 
L 435.45828 365.481476 
L 435.864505 362.121389 
L 436.270729 378.96246 
L 436.676953 373.379745 
L 437.083178 378.263807 
L 437.489402 373.61961 
L 437.895627 386.470737 
L 438.301851 384.888331 
L 438.708075 372.196812 
L 439.1143 388.117026 
L 439.520524 356.30234 
L 439.926749 384.17651 
L 440.332973 366.009635 
L 440.739197 382.282448 
L 441.145422 375.888653 
L 441.551646 382.672689 
L 441.957871 376.279911 
L 442.364095 379.115793 
L 442.770319 378.600743 
L 443.176544 378.524576 
L 443.582768 383.684629 
L 443.988993 373.924604 
L 444.395217 375.1399 
L 444.801441 384.543352 
L 445.207666 378.744574 
L 445.61389 369.225738 
L 446.020115 380.263808 
L 446.832563 365.407593 
L 447.238788 381.888349 
L 447.645012 393.061017 
L 448.051237 379.701942 
L 448.457461 385.862667 
L 448.863686 367.044725 
L 449.26991 374.07834 
L 449.676134 377.924319 
L 450.082359 374.173107 
L 450.488583 393.385533 
L 450.894808 378.311623 
L 451.301032 395.174251 
L 451.707256 393.457228 
L 452.113481 375.09195 
L 452.519705 379.664357 
L 452.92593 374.588802 
L 453.332154 390.549613 
L 453.738378 375.390936 
L 454.144603 392.66304 
L 454.550827 379.747511 
L 454.957052 385.056482 
L 455.363276 380.944878 
L 455.7695 373.89679 
L 456.175725 394.354859 
L 456.581949 381.045673 
L 456.988174 379.855428 
L 457.394398 370.871201 
L 457.800622 371.711785 
L 458.206847 392.136396 
L 458.613071 375.773845 
L 459.019296 377.745341 
L 459.42552 369.915504 
L 459.831744 386.554525 
L 460.237969 386.658871 
L 460.644193 381.025556 
L 461.050418 372.922819 
L 461.456642 387.790724 
L 461.862867 375.759756 
L 462.269091 381.622128 
L 462.269091 381.622128 
" clip-path="url(#pb0b101dd36)" style="fill: none; stroke: #1f77b4; stroke-width: 1.5; stroke-linecap: round"/>
   </g>
   <g id="LineCollection_1">
    <path d="M 56.450909 268.981704 
L 462.269091 268.981704 
" clip-path="url(#pb0b101dd36)" style="fill: none; stroke-dasharray: 5.55,2.4; stroke-dashoffset: 0; stroke: #808080; stroke-width: 1.5"/>
   </g>
   <g id="patch_3">
    <path d="M 36.16 450.72 
L 36.16 7.2 
" style="fill: none; stroke: #cccccc; stroke-width: 1.25; stroke-linejoin: miter; stroke-linecap: square"/>
   </g>
   <g id="patch_4">
    <path d="M 482.56 450.72 
L 482.56 7.2 
" style="fill: none; stroke: #cccccc; stroke-width: 1.25; stroke-linejoin: miter; stroke-linecap: square"/>
   </g>
   <g id="patch_5">
    <path d="M 36.16 450.72 
L 482.56 450.72 
" style="fill: none; stroke: #cccccc; stroke-width: 1.25; stroke-linejoin: miter; stroke-linecap: square"/>
   </g>
   <g id="patch_6">
    <path d="M 36.16 7.2 
L 482.56 7.2 
" style="fill: none; stroke: #cccccc; stroke-width: 1.25; stroke-linejoin: miter; stroke-linecap: square"/>
   </g>
   <g id="legend_1">
    <g id="patch_7">
     <path d="M 372.291875 118.159062 
L 467.16 118.159062 
Q 471.56 118.159062 471.56 113.759062 
L 471.56 22.6 
Q 471.56 18.2 467.16 18.2 
L 372.291875 18.2 
Q 367.891875 18.2 367.891875 22.6 
L 367.891875 113.759062 
Q 367.891875 118.159062 372.291875 118.159062 
z
" style="fill: #ffffff; opacity: 0.8; stroke: #cccccc; stroke-linejoin: miter"/>
    </g>
    <g id="line2d_4">
     <path d="M 376.691875 35.047187 
L 398.691875 35.047187 
L 420.691875 35.047187 
" style="fill: none; stroke: #d62728; stroke-width: 1.5; stroke-linecap: round"/>
    </g>
    <g id="text_14">
     <!-- 0 -->
     <g style="fill: #262626" transform="translate(438.291875 42.747187) scale(0.22 -0.22)">
      <use xlink:href="#ArialMT-30"/>
     </g>
    </g>
    <g id="line2d_5">
     <path d="M 376.691875 66.166875 
L 398.691875 66.166875 
L 420.691875 66.166875 
" style="fill: none; stroke: #2ca02c; stroke-width: 1.5; stroke-linecap: round"/>
    </g>
    <g id="text_15">
     <!-- 31 -->
     <g style="fill: #262626" transform="translate(438.291875 73.866875) scale(0.22 -0.22)">
      <defs>
       <path id="ArialMT-33" d="M 269 1209 
L 831 1284 
Q 928 806 1161 595 
Q 1394 384 1728 384 
Q 2125 384 2398 659 
Q 2672 934 2672 1341 
Q 2672 1728 2419 1979 
Q 2166 2231 1775 2231 
Q 1616 2231 1378 2169 
L 1441 2663 
Q 1497 2656 1531 2656 
Q 1891 2656 2178 2843 
Q 2466 3031 2466 3422 
Q 2466 3731 2256 3934 
Q 2047 4138 1716 4138 
Q 1388 4138 1169 3931 
Q 950 3725 888 3313 
L 325 3413 
Q 428 3978 793 4289 
Q 1159 4600 1703 4600 
Q 2078 4600 2393 4439 
Q 2709 4278 2876 4000 
Q 3044 3722 3044 3409 
Q 3044 3113 2884 2869 
Q 2725 2625 2413 2481 
Q 2819 2388 3044 2092 
Q 3269 1797 3269 1353 
Q 3269 753 2831 336 
Q 2394 -81 1725 -81 
Q 1122 -81 723 278 
Q 325 638 269 1209 
z
" transform="scale(0.015625)"/>
      </defs>
      <use xlink:href="#ArialMT-33"/>
      <use xlink:href="#ArialMT-31" x="55.615234"/>
     </g>
    </g>
    <g id="line2d_6">
     <path d="M 376.691875 97.286562 
L 398.691875 97.286562 
L 420.691875 97.286562 
" style="fill: none; stroke: #1f77b4; stroke-width: 1.5; stroke-linecap: round"/>
    </g>
    <g id="text_16">
     <!-- 16 -->
     <g style="fill: #262626" transform="translate(438.291875 104.986562) scale(0.22 -0.22)">
      <use xlink:href="#ArialMT-31"/>
      <use xlink:href="#ArialMT-36" x="55.615234"/>
     </g>
    </g>
   </g>
  </g>
 </g>
 <defs>
  <clipPath id="pb0b101dd36">
   <rect x="36.16" y="7.2" width="446.4" height="443.52"/>
  </clipPath>
 </defs>
</svg>
